<svg width="184" height="109" viewBox="0 0 184 109" fill="none" xmlns="http://www.w3.org/2000/svg">
<mask id="mask0_1229_2530" style="mask-type:alpha" maskUnits="userSpaceOnUse" x="0" y="0" width="184" height="109">
<rect width="184" height="109" fill="#C4C4C4"/>
</mask>
<g mask="url(#mask0_1229_2530)">
<path d="M129.616 72.6437C127.016 73.5437 122.615 74.5443 117.814 75.5447C116.014 78.2454 112.913 80.5457 108.012 81.2461C106.912 81.4464 105.611 81.5462 104.211 81.5462C100.811 81.5462 96.9099 81.0459 92.5089 80.5457C92.2089 80.5457 91.9089 80.4459 91.6088 80.4459C90.6084 80.3461 89.7083 79.5459 89.6086 78.4457C89.5089 77.0454 90.7089 75.9452 92.0093 76.1454C92.3093 76.1454 92.7098 76.2452 93.0098 76.2452C98.7113 76.8452 104.012 77.5456 107.413 76.9457C113.714 75.9452 115.615 72.1449 115.214 68.9439C114.914 66.3435 113.114 63.7427 110.013 63.9429C105.612 64.1431 100.411 63.6429 95.4099 63.1426C89.7084 62.5426 83.7076 62.0424 79.5069 62.6424C77.2066 62.9424 73.1056 64.4424 69.0046 66.1434C68.0041 66.5432 66.1044 67.3435 66.1044 67.3435L47.7007 72.6438C46.1002 73.1441 45 74.5444 45 76.2445V92.7475C45 94.9479 46.9006 96.6483 49.101 96.5484L66.1042 95.1482C74.6063 98.1489 85.108 101.45 91.2092 101.949C103.612 102.95 128.117 88.8467 135.018 84.2454C142.019 79.7454 137.318 70.0433 129.617 72.6437L129.616 72.6437Z" fill="#ED51C2"/>
<path d="M95.9089 58.4411C100.01 58.8409 104.211 59.2413 107.911 59.2413H109.812H110.312C115.413 59.2413 119.514 63.1421 120.014 68.6434C120.114 69.2434 120.114 69.7436 120.014 70.3436C124.515 69.3432 126.815 68.7432 128.115 68.2429C129.516 67.7426 130.816 67.5424 132.216 67.5424H132.417C132.816 66.2419 133.017 64.942 133.017 63.5419C133.017 56.7409 127.916 51.2397 121.314 50.5392C120.714 45.338 116.313 41.3373 111.012 41.3373C110.012 41.3373 109.112 41.5376 108.212 41.7371L108.211 30.2357C111.712 29.3357 116.513 27.4351 120.013 23.6342C124.514 18.733 125.614 11.9319 125.914 8.73105C126.014 7.73056 125.114 6.93105 124.114 7.0308C120.913 7.63081 114.312 9.33108 109.811 14.2322C108.011 16.2325 106.711 18.5327 105.811 20.7332C104.911 18.4329 103.71 16.1319 101.811 14.2322C97.3091 9.33108 90.7076 7.63074 87.5073 7.0308C86.5068 6.83056 85.6067 7.63081 85.7073 8.73105C86.0073 12.0317 87.1075 18.733 91.6083 23.6342C95.1094 27.4351 100.01 29.3357 103.41 30.2357V41.3379C102.81 41.2382 102.11 41.1377 101.51 41.1377C96.4089 41.1377 92.2082 44.7384 91.3075 49.5392H91.0075C85.7065 49.5392 81.2057 53.0402 79.7051 57.8408C80.9051 57.7411 82.3054 57.6406 83.8061 57.6406C87.5074 57.6406 91.708 58.0411 95.9088 58.4409L95.9089 58.4411Z" fill="#000887"/>
</g>
</svg>
