<svg width="177" height="109" viewBox="0 0 177 109" fill="none" xmlns="http://www.w3.org/2000/svg">
<mask id="mask0_1322_409" style="mask-type:alpha" maskUnits="userSpaceOnUse" x="0" y="0" width="177" height="109">
<rect width="177" height="109" fill="#C4C4C4"/>
</mask>
<g mask="url(#mask0_1322_409)">
<mask id="mask1_1322_409" style="mask-type:alpha" maskUnits="userSpaceOnUse" x="40" y="7" width="83" height="67">
<path d="M122.821 10.125V30.1898V69.9109C122.821 71.6367 121.422 73.0358 119.696 73.0358H97.481H43.125C41.3991 73.0358 40 71.6367 40 69.9109V10.125C40 8.39909 41.3991 7 43.125 7H119.696C121.422 7 122.821 8.39909 122.821 10.125Z" fill="#ED51C2"/>
</mask>
<g mask="url(#mask1_1322_409)">
<path d="M118.554 29.9689C119.909 29.9672 121.262 30.0707 122.6 30.2778V-4.8162C122.6 -6.866 121.785 -8.83223 120.336 -10.2824C118.886 -11.7317 116.919 -12.5461 114.87 -12.5461H108.428V-7.39314C108.428 -3.97584 107.071 -0.699224 104.654 1.71716C102.238 4.13288 98.962 5.4907 95.5447 5.4907H67.2023C63.785 5.4907 60.5084 4.13279 58.092 1.71716C55.6763 -0.699224 54.3184 -3.97584 54.3184 -7.39314V-12.5461H47.8774C45.8267 -12.5461 43.8605 -11.7317 42.4112 -10.2824C40.9619 -8.83215 40.1475 -6.86596 40.1475 -4.8162V89.2308C40.1475 91.2815 40.9619 93.2477 42.4112 94.6969C43.8606 96.1462 45.8268 96.9607 47.8774 96.9607H114.87C116.919 96.9607 118.886 96.1463 120.336 94.6969C121.785 93.2476 122.6 91.2814 122.6 89.2308V83.4075C121.261 83.6145 119.909 83.718 118.554 83.7172C111.906 83.7085 105.497 81.2394 100.561 76.7869C95.6248 72.3336 92.5123 66.2117 91.8213 59.6H87.8147C86.3921 59.6 85.2378 58.4456 85.2378 57.023V28.6806C85.2378 27.3132 85.7813 26.0027 86.7475 25.0365C87.7138 24.0702 89.0243 23.5267 90.3917 23.5267H95.5447C96.9112 23.5267 98.2225 24.0702 99.1888 25.0365C100.155 26.0027 100.698 27.3133 100.698 28.6806V36.8229C105.6 32.4117 111.96 29.9704 118.554 29.9686L118.554 29.9689ZM62.0484 57.0237C62.0484 57.707 61.7775 58.3627 61.2944 58.8458C60.8104 59.3289 60.1556 59.6007 59.4723 59.6007H49.1654C47.7428 59.6007 46.5885 58.4464 46.5885 57.0237V41.5638C46.5885 40.1973 47.132 38.886 48.0982 37.9197C49.0645 36.9535 50.375 36.4108 51.7423 36.4108H56.8953C58.2619 36.4108 59.5732 36.9535 60.5395 37.9197C61.5057 38.886 62.0483 40.1972 62.0483 41.5638L62.0484 57.0237ZM81.3733 57.0237C81.3733 57.707 81.1024 58.3627 80.6192 58.8458C80.1353 59.3289 79.4805 59.6007 78.7972 59.6007H68.4903C67.0677 59.6007 65.9133 58.4464 65.9133 57.0237V20.9514C65.9133 19.584 66.4568 18.2735 67.4231 17.3073C68.3893 16.341 69.6999 15.7975 71.0672 15.7975H76.2202C77.5868 15.7975 78.8981 16.341 79.8643 17.3073C80.8306 18.2735 81.3732 19.5841 81.3732 20.9514L81.3733 57.0237Z" fill="#ED51C2"/>
</g>
<path d="M140.27 98.084L134.737 82.8411C134.322 81.6699 133.57 80.6469 132.575 79.9009C131.58 79.1549 130.387 78.7194 129.145 78.6495L127.759 74.8304C134.431 71.4665 138.913 64.9181 139.631 57.4803C140.35 50.0436 137.205 42.7578 131.299 38.1797C125.395 33.602 117.555 32.3715 110.531 34.9206C103.508 37.4698 98.282 43.4427 96.6883 50.7421C95.0942 58.0421 97.3542 65.6492 102.676 70.8935C107.998 76.1388 115.636 78.2883 122.913 76.5895L124.299 80.4086C123.391 81.2586 122.755 82.3576 122.471 83.5682C122.186 84.7787 122.265 86.0461 122.697 87.211L128.23 102.454C129.211 104.293 131.022 105.545 133.09 105.811C135.158 106.077 137.227 105.326 138.643 103.796C140.058 102.265 140.645 100.143 140.218 98.1028L140.27 98.084ZM102.975 48.4433C104.836 44.4627 108.202 41.3838 112.332 39.8841C116.462 38.3856 121.019 38.5889 125 40.4494C128.98 42.3099 132.059 45.6755 133.558 49.8053C135.058 53.9362 134.854 58.4932 132.994 62.4738C131.133 66.4544 127.768 69.5333 123.637 71.0318C119.507 72.5315 114.95 72.3282 110.969 70.4677C106.993 68.6017 103.919 65.2356 102.42 61.1076C100.922 56.9791 101.122 52.4252 102.975 48.4433Z" fill="#ED51C2"/>
<path fill-rule="evenodd" clip-rule="evenodd" d="M129.553 78.686C129.418 78.6695 129.281 78.6573 129.144 78.6496L127.758 74.8305C134.43 71.4666 138.912 64.9182 139.63 57.4804C140.349 50.0437 137.204 42.7579 131.298 38.1798C125.394 33.6022 117.554 32.3716 110.53 34.9208C103.507 37.4699 98.2811 43.4428 96.6873 50.7422C95.0932 58.0422 97.3532 65.6494 102.675 70.8937C107.997 76.1389 115.635 78.2884 122.912 76.5897L124.298 80.4088C124.184 80.515 124.075 80.6251 123.97 80.7388C124.753 80.1804 125.645 79.6758 126.646 79.2854C127.521 78.9444 128.512 78.7584 129.553 78.686ZM112.331 39.8843C108.201 41.3839 104.835 44.4628 102.974 48.4434C101.121 52.4253 100.921 56.9792 102.419 61.1078C103.918 65.2358 106.992 68.6018 110.968 70.4678C114.949 72.3284 119.506 72.5316 123.636 71.0319C127.767 69.5334 131.132 66.4545 132.993 62.4739C134.853 58.4933 135.057 53.9364 133.557 49.8055C132.058 45.6756 128.979 42.31 124.999 40.4495C121.018 38.589 116.461 38.3857 112.331 39.8843Z" fill="#000887"/>
</g>
</svg>
