<svg width="185" height="112" viewBox="0 0 185 112" fill="none" xmlns="http://www.w3.org/2000/svg">
<mask id="mask0_1322_482" style="mask-type:alpha" maskUnits="userSpaceOnUse" x="0" y="0" width="185" height="112">
<rect width="185" height="112" fill="#C4C4C4"/>
</mask>
<g mask="url(#mask0_1322_482)">
<path d="M100.874 41.2278C100.812 41.1814 100.767 41.1502 100.705 41.1191L91.0726 35.5347C91.0103 35.5035 90.9487 35.4723 90.8864 35.4571C89.0249 34.6662 86.822 35.4419 85.8448 37.1787C85.8123 37.2251 83.0214 42.0027 79.5935 42.0187C76.7236 42.0187 74.1018 38.5132 73.3421 37.1634C72.3802 35.4571 70.1773 34.635 68.3332 35.2867C68.2245 35.3331 65.3706 36.3414 62.9814 37.7222C60.5618 39.1183 58.2653 41.0725 58.1573 41.1661C56.7301 42.3919 56.3271 44.8266 57.2889 46.4403C57.3042 46.4555 58.9177 49.2637 58.9177 51.9319C58.9177 52.8474 58.7314 53.6231 58.3596 54.274C56.9323 56.756 52.5888 57.2678 51.0376 57.2525C49.0522 57.2373 47.2835 58.7726 47.0356 60.758C47.0204 60.8203 46.9733 60.8819 47.0204 60.9442L47.0356 72.113C47.0356 72.1754 47.0356 72.237 47.0509 72.2834C47.2697 74.2535 49.0689 75.836 51.0376 75.8048C51.0999 75.8048 56.6532 75.82 58.3596 78.7985C58.7321 79.4343 58.9177 80.2099 58.9177 81.1254C58.9177 83.8089 57.3042 86.5859 57.2889 86.6171C56.2959 88.277 56.7772 90.6814 58.3284 91.8448C58.3706 91.8752 58.4323 91.9216 58.4794 91.9528L68.1274 97.522C68.1745 97.5524 68.2362 97.5836 68.2985 97.6148C70.1599 98.3904 72.3781 97.63 73.34 95.8932C74.1004 94.5435 76.7229 91.0532 79.6073 91.0532C82.4784 91.0532 85.0831 94.5435 85.8448 95.9084C86.822 97.5995 89.0249 98.4216 90.8538 97.7851C90.9777 97.7387 93.8164 96.7304 96.2207 95.3344C98.625 93.9535 100.937 91.9841 101.031 91.9064C102.473 90.6655 102.861 88.2459 101.899 86.6323C101.884 86.6011 100.27 83.8089 100.27 81.1255C100.27 80.226 100.457 79.4344 100.829 78.7987C102.271 76.3015 106.599 75.789 108.135 75.8049C110.136 75.8361 111.904 74.2849 112.153 72.2995C112.168 72.2372 112.168 72.1756 112.168 72.098L112.153 60.9444L112.153 60.7582C111.905 58.7728 110.151 57.2368 108.151 57.2527C106.599 57.268 102.256 56.7562 100.829 54.2742C100.456 53.6385 100.27 52.847 100.27 51.9474C100.27 49.2479 101.899 46.4717 101.899 46.4557C102.891 44.7958 102.41 42.3913 100.874 41.228L100.874 41.2278ZM92.0013 66.5278C92.0013 73.3684 86.4321 78.9376 79.5915 78.9376C72.7509 78.9376 67.1817 73.3684 67.1817 66.5278C67.1817 59.6871 72.7509 54.118 79.5915 54.118C86.4321 54.118 92.0013 59.6871 92.0013 66.5278Z" fill="#000887"/>
<path d="M115.842 15.3533C115.129 14.1123 113.516 13.507 112.182 13.9883C112.12 14.0195 110.444 14.6088 109.017 15.4308C107.606 16.2528 106.24 17.4162 106.178 17.4627C105.11 18.3622 104.846 20.1621 105.544 21.3095C105.853 21.8524 106.739 24.0705 106.133 25.1101C105.498 26.2424 103.278 26.475 102.548 26.475C101.075 26.4598 99.7712 27.6073 99.6023 29.0657C99.6023 29.128 99.6023 29.1896 99.585 29.2519L99.6009 35.6279C99.6009 35.6902 99.6009 35.7366 99.6161 35.783C99.756 37.2719 101.059 38.4049 102.548 38.3889C103.277 38.3889 105.496 38.6368 106.147 39.7698C106.302 40.0336 106.379 40.3591 106.379 40.7629C106.379 41.8799 105.773 43.1521 105.543 43.5398C104.798 44.7808 105.155 46.5495 106.301 47.4026C106.363 47.449 106.41 47.4802 106.457 47.5113L111.949 50.6914L112.135 50.7842C113.516 51.3583 115.143 50.7842 115.843 49.5121C116.198 48.8916 117.534 47.0925 118.837 47.0925C120.14 47.0925 121.459 48.8916 121.832 49.528C122.561 50.7843 124.126 51.3743 125.477 50.893C125.555 50.8618 127.23 50.2725 128.642 49.4505C130.069 48.6285 131.434 47.4651 131.497 47.4187C132.567 46.5031 132.847 44.7504 132.133 43.5718C131.822 43.0289 130.923 40.7948 131.527 39.7712C132.179 38.639 134.397 38.3903 135.095 38.3903C136.584 38.4215 137.887 37.2733 138.074 35.7997L138.074 29.2534C138.074 29.191 138.074 29.1294 138.058 29.0671C137.888 27.6087 136.6 26.4612 135.111 26.4765C134.522 26.4917 132.195 26.2749 131.528 25.1115C131.371 24.8477 131.295 24.5222 131.295 24.1185C131.295 23.0014 131.901 21.7292 132.148 21.3263C132.862 20.0853 132.505 18.3325 131.358 17.4634C131.311 17.4323 131.263 17.4011 131.201 17.3706L125.712 14.1905C125.649 14.1594 125.603 14.1282 125.541 14.0977C124.176 13.5237 122.531 14.0825 121.818 15.3699C121.539 15.8817 120.174 17.7895 118.825 17.7895C117.533 17.7888 116.199 15.989 115.843 15.3532L115.842 15.3533ZM125.041 32.432C125.041 35.8599 122.249 38.6368 118.836 38.6368C115.408 38.6368 112.631 35.8599 112.631 32.432C112.631 29.0193 115.408 26.2271 118.836 26.2271C122.249 26.2271 125.041 29.0193 125.041 32.432Z" fill="#ED51C2"/>
</g>
</svg>
