<svg width="189" height="112" viewBox="0 0 189 112" fill="none" xmlns="http://www.w3.org/2000/svg">
<mask id="mask0_1322_466" style="mask-type:alpha" maskUnits="userSpaceOnUse" x="0" y="0" width="189" height="112">
<rect width="189" height="112" fill="#C4C4C4"/>
</mask>
<g mask="url(#mask0_1322_466)">
<path fill-rule="evenodd" clip-rule="evenodd" d="M113.857 60.5713C112.043 60.5713 110.571 62.0404 110.571 63.857V96.7141C110.571 98.5279 112.043 99.9999 113.857 99.9999H127C128.814 99.9999 130.286 98.5279 130.286 96.7141V63.857C130.286 62.0404 128.814 60.5713 127 60.5713H113.857ZM87.5714 47.4285C85.7576 47.4285 84.2857 48.8975 84.2857 50.7142V96.7141C84.2857 98.5279 85.7576 99.9999 87.5714 99.9999H100.714C102.528 99.9999 104 98.5279 104 96.7141V50.7142C104 48.8975 102.528 47.4285 100.714 47.4285H87.5714ZM61.2857 34.2856C59.472 34.2856 58 35.7547 58 37.5713V96.7141C58 98.5279 59.472 99.9999 61.2857 99.9999H74.4286C76.2423 99.9999 77.7143 98.5279 77.7143 96.7141V37.5713C77.7143 35.7547 76.2423 34.2856 74.4286 34.2856H61.2857ZM119.321 40.6011C108.324 39.8223 99.6628 37.1938 93.144 31.861C87.7064 27.4121 83.6843 21.0775 81.1284 12.1936C80.6253 10.4525 81.6345 8.62855 83.3756 8.12912C85.1204 7.62673 86.9407 8.63518 87.4432 10.3764C89.5657 17.7531 92.7891 23.0829 97.3041 26.7756C102.702 31.1916 109.839 33.2751 118.77 33.988L115.382 30.6004C114.101 29.3191 114.101 27.2354 115.382 25.9542C116.667 24.6729 118.747 24.6729 120.032 25.9542L129.323 35.2496C129.721 35.6442 129.994 36.1172 130.145 36.6196C130.217 36.8594 130.263 37.1125 130.28 37.3757L130.283 37.4645L130.286 37.5334V37.6156L130.283 37.6977L130.28 37.7696C130.263 38.0292 130.217 38.2823 130.145 38.5257C129.994 39.0252 129.721 39.4983 129.323 39.8958L120.032 49.1874C118.747 50.4687 116.667 50.4687 115.382 49.1874C114.101 47.9061 114.101 45.8232 115.382 44.5419L119.321 40.6011Z" fill="#ED51C2"/>
<path fill-rule="evenodd" clip-rule="evenodd" d="M81.3752 9.76123C80.9962 10.4843 80.8842 11.3488 81.1284 12.1937C81.2092 12.4745 81.2914 12.7527 81.3752 13.0285V9.76123ZM100.963 99.9906H87.3222C87.4045 99.9967 87.4876 99.9999 87.5714 99.9999H100.714C100.798 99.9999 100.881 99.9967 100.963 99.9906ZM113.857 60.5714C112.043 60.5714 110.571 62.0404 110.571 63.8571V96.7142C110.571 98.5279 112.043 99.9999 113.857 99.9999H127C128.814 99.9999 130.286 98.5279 130.286 96.7142V63.8571C130.286 62.0404 128.814 60.5714 127 60.5714H113.857ZM61.2857 34.2857C59.472 34.2857 58 35.7547 58 37.5714V96.7142C58 98.5279 59.472 99.9999 61.2857 99.9999H74.4286C76.2423 99.9999 77.7143 98.5279 77.7143 96.7142V37.5714C77.7143 35.7547 76.2423 34.2857 74.4286 34.2857H61.2857Z" fill="#000887"/>
</g>
</svg>
