<svg width="184" height="112" viewBox="0 0 184 112" fill="none" xmlns="http://www.w3.org/2000/svg">
<mask id="mask0_1322_270" style="mask-type:alpha" maskUnits="userSpaceOnUse" x="0" y="0" width="184" height="112">
<rect width="184" height="112" fill="#C4C4C4"/>
</mask>
<g mask="url(#mask0_1322_270)">
<g clip-path="url(#clip0_1322_270)">
<path d="M128.63 45.7608C124.828 41.9145 119.911 39.4155 114.606 38.633C114.285 38.5991 113.964 38.6928 113.71 38.8943C113.456 39.0958 113.288 39.3897 113.242 39.7143C113.196 40.0389 113.275 40.3691 113.462 40.6358C113.65 40.9025 113.931 41.085 114.248 41.1451C118.587 41.7861 122.646 43.704 125.928 46.6628C121.95 50.2093 116.892 52.2512 111.608 52.4442C106.323 52.6373 101.135 50.9697 96.917 47.7227C109.328 46.1046 119.013 35.2917 119.085 22.3024C119.085 22.135 119.053 21.9691 118.99 21.8144C118.927 21.6596 118.835 21.5189 118.719 21.4004C118.602 21.2754 118.461 21.1773 118.304 21.1124C118.147 21.0476 117.978 21.0175 117.809 21.0242C112.565 21.0449 107.46 22.743 103.216 25.8784C102.949 26.0767 102.771 26.3742 102.719 26.706C102.666 27.0379 102.745 27.3772 102.938 27.6502C103.034 27.7855 103.155 27.9001 103.294 27.9875C103.434 28.075 103.589 28.1335 103.75 28.1598C103.912 28.1862 104.077 28.1797 104.237 28.1408C104.396 28.102 104.546 28.0315 104.678 27.9334C108.149 25.3707 112.266 23.8704 116.545 23.6091C116.186 28.9781 114.019 34.0567 110.408 37.9876C106.797 41.9186 101.965 44.4612 96.7262 45.1863C104.38 35.1218 103.768 20.5549 94.8425 11.3682C94.6056 11.1325 94.2875 11.0005 93.9563 11.0005C93.625 11.0005 93.3069 11.1325 93.0701 11.3682C89.2914 15.2386 86.8364 20.2437 86.0677 25.6438C86.0369 25.812 86.0398 25.9849 86.0762 26.1519C86.1126 26.319 86.1819 26.4768 86.2797 26.616C86.3776 26.7551 86.502 26.8727 86.6456 26.9616C86.7893 27.0506 86.949 27.1091 87.1154 27.1337C87.2818 27.1582 87.4513 27.1483 87.6138 27.1045C87.7764 27.0607 87.9285 26.9839 88.0611 26.8788C88.1938 26.7736 88.3042 26.6423 88.3857 26.4926C88.4672 26.343 88.5182 26.1781 88.5356 26.0079C89.1682 21.5895 91.0582 17.4564 93.9722 14.1189C97.6882 18.437 99.674 24.019 99.5359 29.7578C99.4555 34.7364 97.8075 39.5574 94.8346 43.5116C93.2449 30.9714 82.7692 21.1657 70.1673 21.0322C70.0021 21.0296 69.838 21.0603 69.6845 21.1227C69.5311 21.1851 69.3914 21.2778 69.2734 21.3956C69.1555 21.5134 69.0617 21.6539 68.9975 21.8088C68.9333 21.9638 68.9 22.1302 68.8995 22.2984V24.6568C68.8995 24.6972 68.8995 24.7377 68.8995 24.7822C69.3362 29.1119 70.8534 33.256 73.3068 36.8208C73.3978 36.9645 73.5163 37.088 73.6552 37.184C73.7942 37.2799 73.9508 37.3464 74.1156 37.3793C74.2803 37.4122 74.45 37.4109 74.6143 37.3755C74.7785 37.3401 74.9341 37.2713 75.0717 37.1732C75.2092 37.0752 75.3259 36.9498 75.4147 36.8048C75.5036 36.6597 75.5627 36.4979 75.5887 36.329C75.6146 36.1602 75.6068 35.9877 75.5657 35.8219C75.5246 35.6562 75.4511 35.5006 75.3495 35.3645C73.1487 32.1748 71.7812 28.4678 71.3754 24.592V23.6171C76.9977 23.9998 82.2739 26.5176 86.1591 30.672C89.5354 34.234 91.706 38.8004 92.3547 43.7058C82.5387 36.0198 68.3113 36.7642 59.3696 45.6758C59.2523 45.7928 59.1592 45.9326 59.0957 46.0868C59.0322 46.241 58.9997 46.4066 59 46.5738C58.9993 46.9132 59.1307 47.2391 59.3656 47.48L60.9871 49.1385L61.0864 49.2316C65.5704 52.9389 71.1703 54.9642 76.9471 54.9677H76.9948C81.496 54.9661 85.9141 53.7339 89.7874 51.3998C90.0706 51.2346 90.2789 50.963 90.3677 50.6433C90.4093 50.4818 90.4187 50.3134 90.3955 50.1481C90.3723 49.9828 90.3169 49.8238 90.2325 49.6806C90.0638 49.391 89.789 49.1815 89.4686 49.0981C89.1482 49.0147 88.8083 49.0641 88.5237 49.2356C85.0351 51.3402 81.054 52.4497 76.9987 52.4475H76.9312C71.7557 52.4352 66.7403 50.6193 62.7198 47.302L62.0442 46.6183C66.3663 42.7963 71.9438 40.771 77.6666 40.9456C83.3893 41.1203 88.8376 43.4821 92.927 47.5609V47.5609C97.6705 52.3444 104.086 55.0157 110.763 54.9879V54.9879C117.446 55.0156 123.867 52.3414 128.614 47.5528C128.732 47.4347 128.824 47.2942 128.888 47.1394C128.951 46.9845 128.984 46.8184 128.984 46.6507C128.984 46.483 128.951 46.3169 128.888 46.1621C128.824 46.0072 128.732 45.8667 128.614 45.7486L128.63 45.7608Z" fill="#000887"/>
</g>
<path d="M58.88 89.48C56.416 89.48 54.24 88.952 52.352 87.896C50.464 86.84 48.992 85.368 47.936 83.48C46.88 81.592 46.352 79.384 46.352 76.856C46.352 74.136 46.88 71.816 47.936 69.896C49.024 67.976 50.416 66.504 52.112 65.48C53.84 64.424 55.664 63.896 57.584 63.896C58.992 63.896 60.352 64.152 61.664 64.664C63.008 65.144 64.192 65.88 65.216 66.872C66.272 67.832 67.104 69.016 67.712 70.424C68.352 71.832 68.704 73.464 68.768 75.32C68.736 75.704 68.576 76.04 68.288 76.328C68 76.584 67.664 76.712 67.28 76.712H48.032L47.456 74.12H66.368L65.744 74.696V73.736C65.616 72.232 65.136 70.952 64.304 69.896C63.472 68.84 62.464 68.04 61.28 67.496C60.096 66.952 58.864 66.68 57.584 66.68C56.624 66.68 55.632 66.872 54.608 67.256C53.616 67.64 52.704 68.248 51.872 69.08C51.072 69.88 50.416 70.92 49.904 72.2C49.392 73.448 49.136 74.936 49.136 76.664C49.136 78.552 49.52 80.264 50.288 81.8C51.056 83.336 52.16 84.552 53.6 85.448C55.072 86.344 56.816 86.792 58.832 86.792C59.952 86.792 60.96 86.632 61.856 86.312C62.752 85.992 63.536 85.576 64.208 85.064C64.88 84.52 65.44 83.96 65.888 83.384C66.24 83.096 66.592 82.952 66.944 82.952C67.264 82.952 67.536 83.08 67.76 83.336C68.016 83.592 68.144 83.88 68.144 84.2C68.144 84.584 67.984 84.92 67.664 85.208C66.704 86.36 65.456 87.368 63.92 88.232C62.384 89.064 60.704 89.48 58.88 89.48ZM92.3521 64.472C92.7681 64.472 93.1041 64.616 93.3601 64.904C93.6481 65.192 93.7921 65.544 93.7921 65.96V87.56C93.7921 87.944 93.6481 88.28 93.3601 88.568C93.0721 88.856 92.7361 89 92.3521 89C91.9361 89 91.5841 88.856 91.2961 88.568C91.0401 88.28 90.9121 87.944 90.9121 87.56V81.848L91.7281 81.464C91.7281 82.36 91.4721 83.272 90.9601 84.2C90.4801 85.128 89.8081 85.992 88.9441 86.792C88.0801 87.592 87.0561 88.248 85.8721 88.76C84.7201 89.24 83.4721 89.48 82.1281 89.48C79.9521 89.48 78.0001 88.92 76.2721 87.8C74.5761 86.68 73.2321 85.144 72.2401 83.192C71.2801 81.24 70.8001 79.048 70.8001 76.616C70.8001 74.12 71.2961 71.928 72.2881 70.04C73.2801 68.12 74.6241 66.616 76.3201 65.528C78.0161 64.44 79.9361 63.896 82.0801 63.896C83.4561 63.896 84.7361 64.136 85.9201 64.616C87.1361 65.096 88.1921 65.752 89.0881 66.584C89.9841 67.416 90.6721 68.376 91.1521 69.464C91.6641 70.52 91.9201 71.624 91.9201 72.776L90.9121 72.056V65.96C90.9121 65.544 91.0401 65.192 91.2961 64.904C91.5841 64.616 91.9361 64.472 92.3521 64.472ZM82.3681 86.792C84.0641 86.792 85.5681 86.36 86.8801 85.496C88.1921 84.6 89.2161 83.384 89.9521 81.848C90.7201 80.28 91.1041 78.536 91.1041 76.616C91.1041 74.728 90.7201 73.032 89.9521 71.528C89.2161 70.024 88.1921 68.824 86.8801 67.928C85.5681 67.032 84.0641 66.584 82.3681 66.584C80.7041 66.584 79.2001 67.016 77.8561 67.88C76.5441 68.744 75.5041 69.928 74.7361 71.432C74.0001 72.936 73.6321 74.664 73.6321 76.616C73.6321 78.536 74.0001 80.28 74.7361 81.848C75.5041 83.384 76.5441 84.6 77.8561 85.496C79.1681 86.36 80.6721 86.792 82.3681 86.792ZM97.0775 85.112C96.8215 84.728 96.6935 84.36 96.6935 84.008C96.7255 83.624 96.9335 83.32 97.3175 83.096C97.5735 82.872 97.8615 82.776 98.1815 82.808C98.5335 82.84 98.8535 83 99.1415 83.288C100.005 84.408 101.045 85.32 102.261 86.024C103.509 86.696 104.981 87.032 106.677 87.032C107.573 87.032 108.453 86.888 109.317 86.6C110.213 86.28 110.949 85.816 111.525 85.208C112.101 84.568 112.389 83.768 112.389 82.808C112.389 81.816 112.101 81.016 111.525 80.408C110.949 79.8 110.197 79.32 109.269 78.968C108.373 78.616 107.413 78.312 106.389 78.056C105.301 77.768 104.245 77.448 103.221 77.096C102.197 76.712 101.285 76.248 100.485 75.704C99.7175 75.128 99.0935 74.44 98.6135 73.64C98.1335 72.84 97.8935 71.864 97.8935 70.712C97.8935 69.368 98.2615 68.184 98.9975 67.16C99.7335 66.136 100.725 65.336 101.973 64.76C103.253 64.184 104.693 63.896 106.293 63.896C107.093 63.896 107.957 64.008 108.885 64.232C109.813 64.424 110.725 64.76 111.621 65.24C112.517 65.72 113.317 66.376 114.021 67.208C114.309 67.496 114.453 67.832 114.453 68.216C114.453 68.568 114.293 68.888 113.973 69.176C113.717 69.368 113.413 69.464 113.061 69.464C112.741 69.464 112.469 69.336 112.245 69.08C111.477 68.216 110.565 67.56 109.509 67.112C108.453 66.664 107.317 66.44 106.101 66.44C105.173 66.44 104.293 66.6 103.461 66.92C102.661 67.208 101.989 67.656 101.445 68.264C100.901 68.872 100.629 69.672 100.629 70.664C100.693 71.592 101.013 72.344 101.589 72.92C102.197 73.496 102.981 73.976 103.941 74.36C104.933 74.744 106.037 75.096 107.253 75.416C108.277 75.672 109.253 75.976 110.181 76.328C111.141 76.68 111.973 77.128 112.677 77.672C113.413 78.184 113.989 78.84 114.405 79.64C114.853 80.44 115.077 81.448 115.077 82.664C115.077 84.072 114.677 85.288 113.877 86.312C113.109 87.336 112.069 88.12 110.757 88.664C109.445 89.208 107.989 89.48 106.389 89.48C104.661 89.48 102.981 89.144 101.349 88.472C99.7495 87.8 98.3255 86.68 97.0775 85.112ZM129.178 89.48C126.714 89.48 124.538 88.952 122.65 87.896C120.762 86.84 119.29 85.368 118.234 83.48C117.178 81.592 116.65 79.384 116.65 76.856C116.65 74.136 117.178 71.816 118.234 69.896C119.322 67.976 120.714 66.504 122.41 65.48C124.138 64.424 125.962 63.896 127.882 63.896C129.29 63.896 130.65 64.152 131.962 64.664C133.306 65.144 134.49 65.88 135.514 66.872C136.57 67.832 137.402 69.016 138.01 70.424C138.65 71.832 139.002 73.464 139.066 75.32C139.034 75.704 138.874 76.04 138.586 76.328C138.298 76.584 137.962 76.712 137.578 76.712H118.33L117.754 74.12H136.666L136.042 74.696V73.736C135.914 72.232 135.434 70.952 134.602 69.896C133.77 68.84 132.762 68.04 131.578 67.496C130.394 66.952 129.162 66.68 127.882 66.68C126.922 66.68 125.93 66.872 124.906 67.256C123.914 67.64 123.002 68.248 122.17 69.08C121.37 69.88 120.714 70.92 120.202 72.2C119.69 73.448 119.434 74.936 119.434 76.664C119.434 78.552 119.818 80.264 120.586 81.8C121.354 83.336 122.458 84.552 123.898 85.448C125.37 86.344 127.114 86.792 129.13 86.792C130.25 86.792 131.258 86.632 132.154 86.312C133.05 85.992 133.834 85.576 134.506 85.064C135.178 84.52 135.738 83.96 136.186 83.384C136.538 83.096 136.89 82.952 137.242 82.952C137.562 82.952 137.834 83.08 138.058 83.336C138.314 83.592 138.442 83.88 138.442 84.2C138.442 84.584 138.282 84.92 137.962 85.208C137.002 86.36 135.754 87.368 134.218 88.232C132.682 89.064 131.002 89.48 129.178 89.48Z" fill="#000887"/>
</g>
<defs>
<clipPath id="clip0_1322_270">
<rect width="70" height="44" fill="white" transform="translate(59 11)"/>
</clipPath>
</defs>
</svg>
