<svg width="177" height="112" viewBox="0 0 177 112" fill="none" xmlns="http://www.w3.org/2000/svg">
<mask id="mask0_1229_2502" style="mask-type:alpha" maskUnits="userSpaceOnUse" x="0" y="0" width="177" height="112">
<rect width="177" height="112" fill="#C4C4C4"/>
</mask>
<g mask="url(#mask0_1229_2502)">
<path d="M77.9458 71.4724H99.3352V94.9995H77.9458V71.4724Z" fill="#000887"/>
<path d="M122.862 52.2227H54.4167C53.2358 52.2227 52.2783 53.1802 52.2783 54.3611V92.8609C52.2783 93.4281 52.5032 93.9723 52.9042 94.3734C53.306 94.7744 53.8495 95 54.4167 95H73.6666V69.3335C73.6666 68.1525 74.6248 67.1943 75.8058 67.1943H101.472C102.039 67.1943 102.584 67.4199 102.985 67.821C103.386 68.222 103.611 68.7663 103.611 69.3335V95H122.861C123.429 95 123.972 94.7744 124.374 94.3734C124.775 93.9723 125 93.4281 125 92.8609V54.3611C125 53.7939 124.775 53.2503 124.374 52.8486C123.972 52.4475 123.429 52.2227 122.861 52.2227L122.862 52.2227Z" fill="#ED51C2"/>
<path d="M110.841 30.8333L102.285 18H95.0557L98.8627 30.8333H110.841Z" fill="#000887"/>
<path d="M90.7788 18H86.5005L82.8218 30.8333H94.4577L90.7788 18Z" fill="#000887"/>
<path d="M78.4147 30.8333L82.2218 18H74.9923L66.4365 30.8333H78.4147Z" fill="#000887"/>
<path d="M67.25 35.1104H75.8057C76.9866 35.1104 77.9448 36.2913 77.9448 37.2495V45.8052C77.9448 46.9862 76.9874 47.9444 75.8057 47.9444H67.25C66.069 47.9444 65.1108 46.7634 65.1108 45.8052V37.2495C65.1108 36.0686 66.0683 35.1104 67.25 35.1104Z" fill="#000887"/>
<path d="M70.2018 18H62.9723C62.2991 18 61.6653 18.3173 61.2614 18.8558L49.0698 30.8333H61.6468L70.2018 18Z" fill="#000887"/>
<path d="M60.8333 35.1104H50.1391C48.9582 35.1104 48 36.0686 48 37.2495V45.8052C48 46.3724 48.2256 46.916 48.6266 47.3177C49.0277 47.7188 49.5719 47.9436 50.1391 47.9436H60.8333V35.1104Z" fill="#000887"/>
<path d="M84.3623 35.1104H92.918C94.0989 35.1104 95.0571 36.2913 95.0571 37.2495V45.8052C95.0571 46.9862 94.0997 47.9444 92.918 47.9444H84.3623C83.1813 47.9444 82.2231 46.7634 82.2231 45.8052V37.2495C82.2231 36.0686 83.1806 35.1104 84.3623 35.1104Z" fill="#000887"/>
<path d="M101.473 35.1104H110.028C111.209 35.1104 112.168 36.2913 112.168 37.2495V45.8052C112.168 46.9862 111.21 47.9444 110.028 47.9444H101.473C100.292 47.9444 99.3335 46.7634 99.3335 45.8052V37.2495C99.3335 36.0686 100.291 35.1104 101.473 35.1104Z" fill="#000887"/>
<path d="M107.077 18H114.307C114.98 18 115.614 18.3173 116.018 18.8558L128.209 30.8333H115.633L107.077 18Z" fill="#000887"/>
<path d="M116.445 35.1104H127.139C127.707 35.1104 128.251 35.3359 128.652 35.737C129.053 36.138 129.279 36.6823 129.279 37.2495V45.8052C129.279 46.3724 129.053 46.916 128.652 47.3177C128.251 47.7188 127.707 47.9436 127.139 47.9436H116.445V35.1104Z" fill="#000887"/>
</g>
</svg>
