<svg width="184" height="112" viewBox="0 0 184 112" fill="none" xmlns="http://www.w3.org/2000/svg">
<mask id="mask0_1322_487" style="mask-type:alpha" maskUnits="userSpaceOnUse" x="0" y="0" width="184" height="112">
<rect width="184" height="112" fill="#C4C4C4"/>
</mask>
<g mask="url(#mask0_1322_487)">
<path fill-rule="evenodd" clip-rule="evenodd" d="M95.5924 33.7152C95.5875 34.5911 94.8758 35.2984 93.9999 35.2984C82.5735 35.2984 73.297 44.575 73.297 56.0014C73.297 67.4278 82.5735 76.7043 93.9999 76.7043C94.8786 76.7043 95.5924 77.4181 95.5924 78.2969V97.4073C95.5924 98.286 94.8786 98.9998 93.9999 98.9998C91.7513 98.9998 89.501 98.8228 87.2729 98.4709C86.6486 98.3706 86.1403 97.9121 85.9811 97.2985L84.4795 91.5348C81.3727 90.7016 78.3895 89.466 75.6061 87.8592L70.4687 90.8723C69.9227 91.1922 69.2373 91.1588 68.7261 90.7863C65.0761 88.1345 61.8655 84.9245 59.2135 81.2737C58.841 80.7625 58.8076 80.0779 59.1275 79.5311L62.1406 74.3937C60.5324 71.6096 59.296 68.6258 58.465 65.5203L52.7013 64.0188C52.0885 63.8595 51.6292 63.3512 51.5289 62.7269C50.8237 58.2693 50.8237 53.7305 51.5289 49.2729C51.6292 48.6486 52.0878 48.1403 52.7013 47.981L58.465 46.4795C59.2982 43.3727 60.5338 40.3895 62.1406 37.6061L59.1275 32.4687C58.8076 31.9227 58.841 31.2373 59.2135 30.7261C61.8653 27.076 65.0753 23.8655 68.7261 21.2135C69.2373 20.841 69.922 20.8076 70.4687 21.1275L75.6061 24.1406C78.3902 22.5324 81.374 21.296 84.4795 20.465L85.9811 14.7013C86.1403 14.0885 86.6486 13.6292 87.2729 13.5289C89.501 13.177 91.7511 13 93.9999 13C94.8786 13 95.5924 13.7138 95.5924 14.5925V33.7152ZM98.7775 16.4732C118.503 18.8351 133.813 35.6437 133.813 56.0008C133.813 76.3579 118.503 93.1678 98.7775 95.5284V85.8822C113.211 83.5886 124.258 71.0745 124.258 56.0008C124.258 40.9258 113.211 28.4108 98.7775 26.1194V16.4732Z" fill="#ED51C2"/>
<path fill-rule="evenodd" clip-rule="evenodd" d="M93.9999 35.2984C94.8758 35.2984 95.5875 34.5911 95.5924 33.7152V14.5925C95.5924 13.7138 94.8786 13 93.9999 13C91.7511 13 89.501 13.177 87.2729 13.5289C86.6486 13.6292 86.1403 14.0885 85.9811 14.7013L84.4795 20.465C81.374 21.296 78.3902 22.5324 75.6061 24.1406L70.4687 21.1275C69.922 20.8076 69.2373 20.841 68.7261 21.2135C65.0753 23.8655 61.8653 27.076 59.2135 30.7261C58.841 31.2373 58.8076 31.9227 59.1275 32.4687L62.1406 37.6061C60.5338 40.3895 59.2982 43.3727 58.465 46.4795L52.7013 47.981C52.0878 48.1403 51.6292 48.6486 51.5289 49.2729C50.8237 53.7305 50.8237 58.2693 51.5289 62.7269C51.6292 63.3512 52.0885 63.8595 52.7013 64.0188L58.465 65.5203C59.296 68.6258 60.5324 71.6096 62.1406 74.3937L59.1275 79.5311C58.8076 80.0779 58.841 80.7625 59.2135 81.2737C61.8655 84.9245 65.0761 88.1345 68.7261 90.7863C69.2373 91.1588 69.9227 91.1922 70.4687 90.8723L75.6061 87.8592C78.3895 89.466 81.3727 90.7016 84.4795 91.5348L85.9811 97.2985C86.1403 97.9121 86.6486 98.3706 87.2729 98.4709C89.501 98.8228 91.7513 98.9998 93.9999 98.9998C94.8786 98.9998 95.5924 98.286 95.5924 97.4073V78.2969C95.5924 77.4181 94.8786 76.7043 93.9999 76.7043C82.5735 76.7043 73.297 67.4278 73.297 56.0014C73.297 44.575 82.5735 35.2984 93.9999 35.2984Z" fill="#000887"/>
<path fill-rule="evenodd" clip-rule="evenodd" d="M94.3534 48.0478C100.147 44.2321 109.089 38.7223 109.089 38.7223C109.718 38.3355 110.53 38.4294 111.051 38.9519C111.574 39.4723 111.668 40.2849 111.281 40.9141C111.281 40.9141 105.771 49.8565 101.956 55.65C101.961 55.7681 101.963 55.8861 101.963 56.0034C101.963 60.3984 98.3958 63.9661 94.0008 63.9661C89.6057 63.9661 86.0381 60.3984 86.0381 56.0034C86.0381 51.6084 89.6057 48.0407 94.0008 48.0407C94.1188 48.0407 94.2368 48.0436 94.3541 48.0485L94.3534 48.0478Z" fill="#ED51C2"/>
</g>
</svg>
