<svg width="183" height="127" viewBox="0 0 183 127" fill="none" xmlns="http://www.w3.org/2000/svg">
<mask id="mask0_1322_419" style="mask-type:alpha" maskUnits="userSpaceOnUse" x="0" y="0" width="183" height="127">
<rect width="183" height="127" fill="#C4C4C4"/>
</mask>
<g mask="url(#mask0_1322_419)">
<path d="M72.3788 58.2945C77.9001 58.2945 82.9776 57.9088 87.5396 57.1806L96.3585 48.3617L101.341 50.5629C102.941 49.7234 104.626 49.0267 106.375 48.4864L107.726 44.9983C107.607 43.4712 106.499 42.0954 105.145 40.969C102.157 47.133 90.1853 50.8462 72.3791 50.8462C54.5729 50.8462 42.601 47.133 39.6153 40.9698C38.1855 42.1594 37.001 43.6291 37.001 45.26C37.001 51.7381 49.1527 58.2945 72.3802 58.2945L72.3788 58.2945Z" fill="#ED51C2"/>
<path d="M72.3791 69.467C76.9379 69.467 81.2297 69.2118 85.1492 68.713L86.7769 68.0821C87.3189 66.3314 88.0155 64.6448 88.8551 63.0511L87.9016 60.8915C83.2015 61.628 78.006 62.0187 72.3792 62.0187C55.4993 62.0187 42.899 58.6853 37 53.1091V56.4325C37 62.9106 49.1517 69.467 72.3792 69.467L72.3791 69.467Z" fill="#000887"/>
<path d="M42.5859 67.9919V71.3288C42.5859 75.9539 52.8198 80.6391 72.3789 80.6391C75.6732 80.6391 78.7864 80.4994 81.6893 80.2384V72.8084C78.7308 73.0545 75.6226 73.1908 72.3789 73.1908C59.6812 73.1908 49.4192 71.2972 42.5859 67.992V67.9919Z" fill="#ED51C2"/>
<path d="M72.3792 47.0689C95.6071 47.0689 107.758 40.5125 107.758 34.0344C107.758 27.5564 95.6067 21 72.3792 21C49.1517 21 37 27.5564 37 34.0344C37 40.5125 49.1517 47.0689 72.3792 47.0689Z" fill="#000887"/>
<path d="M140.562 70.8862L140.313 69.9834C139.736 67.8919 138.913 65.9001 137.868 64.0606L137.404 63.2451L139.322 58.8975L133.226 52.801L128.88 54.7204L128.064 54.2565C126.22 53.2083 124.229 52.3853 122.143 51.8118L121.24 51.5641L119.518 47.1226H110.897L109.176 51.5632L108.273 51.8109C106.187 52.3862 104.197 53.2075 102.352 54.2557L101.537 54.7195L97.1906 52.8001L91.0941 58.8966L93.0118 63.2443L92.548 64.0597C91.5014 65.8977 90.6801 67.892 90.1032 69.9826L89.8539 70.8854L85.4141 72.6044V81.2274L89.8515 82.9465L90.1009 83.8492C90.6778 85.9407 91.5008 87.9326 92.5456 89.7721L93.0095 90.5876L91.0917 94.9352L97.1882 101.032L101.534 99.1123L102.35 99.5762C104.193 100.624 106.185 101.447 108.271 102.021L109.174 102.269L110.896 106.708H119.517L121.238 102.268L122.141 102.02C124.226 101.445 126.216 100.623 128.062 99.5753L128.877 99.1114L133.223 101.031L139.32 94.9344L137.402 90.5867L137.866 89.7712C138.913 87.9333 139.734 85.939 140.311 83.8484L140.56 82.9456L145 81.2265V72.6036L140.562 70.8862ZM115.206 99.2598C102.885 99.2598 92.8617 89.2361 92.8617 76.915C92.8617 64.5939 102.885 54.5703 115.206 54.5703C127.528 54.5703 137.551 64.5939 137.551 76.915C137.551 89.2361 127.528 99.2598 115.206 99.2598Z" fill="#000887"/>
<path fill-rule="evenodd" clip-rule="evenodd" d="M115.261 99.526C127.719 99.526 137.818 89.4271 137.818 76.9685C137.818 64.5098 127.719 54.4109 115.261 54.4109C102.802 54.4109 92.7031 64.5098 92.7031 76.9685C92.7031 89.4271 102.802 99.526 115.261 99.526ZM115.261 90.8009C122.9 90.8009 129.093 84.6082 129.093 76.9684C129.093 69.3287 122.9 63.136 115.261 63.136C107.621 63.136 101.428 69.3287 101.428 76.9684C101.428 84.6082 107.621 90.8009 115.261 90.8009Z" fill="#ED51C2"/>
<path d="M72.379 91.8116C78.3934 91.8116 83.864 91.3553 88.722 90.4974C87.9456 88.9853 87.288 87.3991 86.7759 85.7475L82.1116 83.9395C79.0734 84.2163 75.8164 84.3634 72.3791 84.3634C54.5723 84.3634 42.601 80.6502 39.6153 74.4871C38.1855 75.6766 37.001 77.1463 37.001 78.7773C37.001 85.2553 49.1527 91.8117 72.3802 91.8117L72.379 91.8116Z" fill="#000887"/>
<path d="M87.2033 94.523C82.6895 95.1863 77.7343 95.5363 72.3792 95.5363C55.4993 95.5363 42.899 92.2029 37 86.6267V89.9501C37 96.4282 49.1517 102.985 72.3792 102.985C79.7119 102.985 86.3821 102.309 91.9234 101.033L86.6556 95.7632L87.2033 94.523Z" fill="#ED51C2"/>
</g>
</svg>
