<svg width="177" height="109" viewBox="0 0 177 109" fill="none" xmlns="http://www.w3.org/2000/svg">
<mask id="mask0_1229_2346" style="mask-type:alpha" maskUnits="userSpaceOnUse" x="0" y="0" width="177" height="109">
<rect width="177" height="109" fill="#C4C4C4"/>
</mask>
<g mask="url(#mask0_1229_2346)">
<path fill-rule="evenodd" clip-rule="evenodd" d="M86.5797 28.3525C89.4131 28.3525 90.901 30.3932 92.4811 32.4379C93.9168 34.2919 95.5597 36.3552 98.1335 36.3552C101.535 36.3552 112.879 35.1226 109.092 29.2364C105.014 23.5389 97.9754 15.2696 90.6146 13.5671C81.1043 12.4319 71.2485 13.3518 61.677 13.3518L44.8285 26.85C44.5475 27.0736 44.2029 27.1977 43.8317 27.1936L25.0615 27.2079V63.9949H35.6043L67.448 29.82C68.7452 28.4274 84.1223 28.3526 86.5771 28.3526L86.5797 28.3525ZM107.291 56.4947L108.281 56.469L108.236 55.4795C107.904 47.9853 116.977 42.6509 122.688 48.3607L133.903 59.5774C135.209 60.8829 136.025 62.5932 136.216 64.4309L136.306 65.3025H149.681V27.3526L127.41 27.3383C127 27.3383 126.609 27.1875 126.315 26.9055L112.304 13.5826H98.3175L100.544 15.3228C104.837 18.676 108.551 23.0323 111.735 27.488C118.26 35.7031 103.86 39.5456 98.1339 39.5456C94.1591 39.5456 92.2056 37.266 89.969 34.3731C89.2204 33.4082 87.9252 31.5398 86.5798 31.5398C80.827 31.5398 75.0783 32.0802 69.3407 32.4483L38.0115 66.0693C39.079 69.6831 41.6282 72.0385 45.5857 70.8561C50.6752 69.2707 64.641 55.5826 69.0802 51.3414C70.5826 49.9068 72.77 52.2007 71.2645 53.6384C65.6489 59.0017 53.291 71.5646 46.4708 73.9171C42.7062 82.0922 50.7869 86.8758 57.7468 81.3178C64.4524 75.9608 70.7867 70.1218 76.9927 64.1936C78.495 62.759 80.6803 65.0529 79.1749 66.4906C73.2385 72.1634 67.1974 77.6887 60.8373 82.8869C57.6645 88.0992 63.0821 94.4992 69.8234 89.1104L73.9662 85.6761C75.5762 84.341 77.6108 86.7529 76.0295 88.088C74.6789 89.2284 73.3224 90.3574 71.9512 91.474C73.7991 96.904 80.4348 98.1662 82.3804 91.835C79.0343 85.7303 83.412 79.6115 90.015 78.7799C88.7147 72.4179 92.4597 67.7509 98.9212 67.3387C98.2649 61.919 101.521 56.6533 107.292 56.4985L107.291 56.4947ZM124.026 69.4545C127.357 72.7854 133.08 69.6545 133.08 65.2993C133.08 63.9991 132.578 62.7439 131.656 61.8231L120.441 50.6064C115.787 45.9548 108.172 53.5996 112.809 58.2378L124.026 69.4545ZM110.959 61.1032C106.308 56.4527 98.6918 64.0965 103.33 68.7347L114.547 79.9514C119.193 84.5977 126.823 76.9663 122.178 72.3199L110.959 61.1032ZM101.878 71.9907C97.2692 67.3772 89.5753 74.9709 94.2463 79.6345L103.317 88.6894C107.918 93.2835 115.645 86.0038 110.804 80.9245L101.877 71.9907H101.878ZM93.4412 83.4555C88.7969 78.8092 81.1652 86.453 85.8137 91.087L90.2169 95.4781C94.8283 100.077 102.49 92.5022 97.8392 87.8517L93.4412 83.4555Z" fill="#ED51C2"/>
<path fill-rule="evenodd" clip-rule="evenodd" d="M86.5797 28.3525C89.4131 28.3525 90.901 30.3932 92.4811 32.4379C93.9168 34.2919 95.5597 36.3552 98.1335 36.3552C101.535 36.3552 112.879 35.1226 109.092 29.2364C105.014 23.5389 97.9754 15.2696 90.6146 13.5671C81.1043 12.4319 71.2485 13.3518 61.677 13.3518L44.8285 26.85C44.5475 27.0736 44.2029 27.1977 43.8317 27.1936L25.0615 27.2079V63.9949H35.6043L67.448 29.82C68.7452 28.4274 84.1223 28.3526 86.5771 28.3526L86.5797 28.3525ZM124.026 69.4545C127.357 72.7854 133.08 69.6545 133.08 65.2993C133.08 63.9991 132.578 62.7439 131.656 61.8231L120.441 50.6064C115.787 45.9548 108.172 53.5996 112.809 58.2378L124.026 69.4545ZM110.959 61.1032C106.308 56.4527 98.6918 64.0965 103.33 68.7347L114.547 79.9514C119.193 84.5977 126.823 76.9663 122.178 72.3199L110.959 61.1032ZM101.878 71.9907C97.2692 67.3772 89.5753 74.9709 94.2463 79.6345L103.317 88.6894C107.918 93.2835 115.645 86.0038 110.804 80.9245L101.878 71.9907ZM93.4412 83.4555C88.7969 78.8092 81.1652 86.453 85.8137 91.087L90.2169 95.4781C94.8283 100.077 102.49 92.5022 97.8392 87.8517L93.4412 83.4555Z" fill="white"/>
</g>
</svg>
