<svg width="184" height="109" viewBox="0 0 184 109" fill="none" xmlns="http://www.w3.org/2000/svg">
<mask id="mask0_1229_2326" style="mask-type:alpha" maskUnits="userSpaceOnUse" x="0" y="0" width="184" height="109">
<rect width="184" height="109" fill="#C4C4C4"/>
</mask>
<g mask="url(#mask0_1229_2326)">
<path d="M111.606 24.5813L111.899 24.4515C115.935 22.6537 119.717 20.3089 123.142 17.483L123.415 17.2587L123.142 17.0352C117.199 12.1324 110.102 8.66531 102.614 7.00684L102.344 7.49013C105.979 11.3093 109.15 17.1151 111.507 24.2786L111.606 24.5813Z" fill="#ED51C2"/>
<path d="M108.28 25.8943L108.543 25.8014L108.46 25.5334C105.006 14.4844 99.7361 7.39288 94.0022 6.08213L93.6475 6.00146V28.6447L93.9483 28.6324C98.8518 28.4417 103.672 27.5195 108.28 25.8946L108.28 25.8943Z" fill="#ED51C2"/>
<path d="M72.1068 24.4503L72.3987 24.5801L72.4992 24.2766C74.8589 17.1098 78.0281 11.304 81.6648 7.48887L82.3218 6.7998L81.3927 7.00557C73.8999 8.66398 66.8014 12.1311 60.8635 17.0326L60.5928 17.2561L60.8635 17.4803C64.2856 20.305 68.0686 22.651 72.1072 24.4502L72.1068 24.4503Z" fill="#ED51C2"/>
<path d="M71.4727 82.3509L71.3798 82.02L71.0708 82.167C66.5283 84.3211 62.3495 87.1573 58.6505 90.5992L58.4229 90.8111L58.6505 91.0237C65.0476 96.9765 72.9102 101.116 81.3883 102.993L82.3159 103.199L81.6596 102.51C77.4357 98.0743 73.9138 91.1044 71.4727 82.3502L71.4727 82.3509Z" fill="#ED51C2"/>
<path d="M74.7212 80.6133L74.4785 80.7049L74.5435 80.9578C77.9498 94.0821 83.5833 102.451 90.0009 103.92L90.355 104V77.5L90.0535 77.513C84.7851 77.7201 79.6259 78.7633 74.7212 80.6138L74.7212 80.6133Z" fill="#ED51C2"/>
<path d="M69.0479 51.0068L72.8595 56.9773L76.6658 51.0158C75.4681 51.3904 74.1899 51.5961 72.8595 51.5961C71.5272 51.5954 70.2489 51.3822 69.0479 51.0069V51.0068Z" fill="white"/>
<path d="M63.5947 39.8976C63.5947 43.2609 65.6708 46.4074 68.8433 47.8662C69.7293 48.2743 70.821 48.5437 71.7896 48.6893C74.9799 49.1685 78.3952 47.6263 80.2663 45.1674C81.4359 43.6293 82.1278 41.7453 82.1278 39.8969C82.1278 35.0188 77.9715 31.0498 72.8624 31.0498C67.7505 31.0519 63.5949 35.0195 63.5949 39.8976L63.5947 39.8976Z" fill="white"/>
<path d="M90.3539 28.6433V6L89.9991 6.0793C84.2952 7.38359 79.0548 14.4076 75.5999 25.3521C74.7085 25.1969 73.7953 25.1025 72.8587 25.1025C70.9556 25.1025 69.1393 25.4539 67.4556 26.0664C64.1572 24.3136 61.0455 22.2143 58.1731 19.7869L57.9728 19.6173L57.7855 19.7999C48.7504 28.6271 43.5032 40.4341 43.0116 53.0464L43 53.3479H63.4505C64.102 54.3787 64.8218 55.5182 65.5355 56.6503H43.0007L43.0123 56.9511C43.4628 68.4983 47.9916 79.5629 55.7662 88.1099L55.9637 88.3259L56.177 88.1256C60.3627 84.2121 65.115 81.0292 70.3021 78.6687L70.5182 78.5717L70.4662 78.3406C69.2057 72.7891 68.4257 66.8856 68.1221 60.7496C68.9178 62.0129 69.5029 62.9418 69.6602 63.1921C70.1859 64.024 70.9781 64.6078 71.875 64.8566C72.2277 69.0395 72.8067 73.083 73.6099 76.946L73.679 77.2741L73.9928 77.16C79.1444 75.2719 84.5556 74.2123 90.077 74.0107L90.3559 74.0004V56.6514L80.26 56.6507C80.986 55.5208 81.7147 54.3833 82.3744 53.3483H90.3547L90.3533 32.1418L90.0737 32.1315C88.6006 32.0782 87.1364 31.9552 85.679 31.7802C84.4936 30.0466 82.9392 28.5728 81.1255 27.4503C84.0499 28.1155 87.0357 28.5133 90.0526 28.6309L90.3539 28.6433ZM85.1093 39.8979C85.1093 43.3069 83.4632 45.7686 81.7173 48.5829C79.9933 51.3651 74.4179 59.9839 73.4382 61.5337C73.1361 62.0067 72.5796 62.0115 72.2775 61.5337C71.7614 60.7127 66.5571 52.4508 64.4599 49.1484C62.6442 46.2896 60.6092 43.3741 60.6092 39.898C60.6092 33.4388 66.0944 28.2031 72.8592 28.2031C79.6261 28.2031 85.1093 33.4386 85.1093 39.8979Z" fill="#ED51C2"/>
<path d="M122.876 53.348H141.001L140.989 53.0465C140.497 40.4328 135.249 28.6252 126.215 19.7965L126.028 19.6133L125.827 19.7835C121.891 23.1125 117.525 25.8292 112.846 27.8568L112.616 27.9566L112.681 28.1999C114.387 34.4964 115.463 41.5437 115.856 48.7904C114.731 48.4398 113.549 48.2183 112.329 48.1274C111.944 41.5444 111.012 35.1745 109.572 29.4776L109.494 29.1727L109.196 29.2759C104.278 30.9822 99.1406 31.9419 93.9275 32.1293L93.6472 32.1396V53.3461H99.4065C98.5349 54.3421 97.8076 55.4536 97.2306 56.6485H93.6471L93.6491 73.9975L93.9287 74.0077C96.2127 74.0918 98.4773 74.3311 100.713 74.7071C101.437 75.8493 102.355 77.3027 103.295 78.7909C100.24 78.069 97.113 77.6349 93.9473 77.5105L93.6465 77.4975V103.998L94.0013 103.918C99.5302 102.653 104.473 96.2554 107.915 86.1192C107.923 86.1322 107.934 86.1493 107.94 86.1589C108.578 87.1658 109.601 87.807 110.732 87.9328C108.476 94.0818 105.622 99.0618 102.34 102.51L101.684 103.198L102.613 102.993C111.093 101.117 118.956 96.9775 125.35 91.024L125.579 90.8114L125.35 90.5995C122.477 87.926 119.309 85.6228 115.909 83.715C116.136 83.3616 116.378 82.9856 116.632 82.5905C117.002 82.0142 117.399 81.3976 117.805 80.7659C121.411 82.8071 124.771 85.2687 127.826 88.1262L128.04 88.3265L128.237 88.1098C136.01 79.5642 140.539 68.4976 140.988 56.9528L141.001 56.6486H125.052C124.475 55.4551 123.747 54.3428 122.876 53.3469L122.876 53.348ZM120 71.5515C118.276 74.3336 112.7 82.9524 111.721 84.5022C111.419 84.9752 110.862 84.98 110.56 84.5022C110.044 83.6812 104.84 75.4193 102.742 72.1169C100.927 69.2581 98.8916 66.3426 98.8916 62.8666C98.8916 56.4073 104.377 51.1717 111.142 51.1717C117.909 51.1717 123.392 56.4073 123.392 62.8666C123.392 66.2756 121.746 68.7373 120 71.5517L120 71.5515Z" fill="#ED51C2"/>
<path d="M107.329 73.9756L111.141 79.946L114.947 73.9845C113.749 74.3591 112.471 74.5649 111.141 74.5649C109.808 74.5642 108.53 74.3509 107.329 73.9756V73.9756Z" fill="white"/>
<path d="M111.142 54.022C106.033 54.022 101.877 57.991 101.877 62.8691C101.877 66.2324 103.953 69.3789 107.126 70.8377C108.011 71.2458 109.103 71.5152 110.072 71.6608C113.262 72.14 116.677 70.5978 118.549 68.1389C119.718 66.6008 120.41 64.7168 120.41 62.8684C120.408 57.9896 116.252 54.022 111.143 54.022L111.142 54.022Z" fill="white"/>
</g>
</svg>
