<svg width="184" height="112" viewBox="0 0 184 112" fill="none" xmlns="http://www.w3.org/2000/svg">
<mask id="mask0_1322_442" style="mask-type:alpha" maskUnits="userSpaceOnUse" x="0" y="0" width="184" height="112">
<rect width="184" height="112" fill="#C4C4C4"/>
</mask>
<g mask="url(#mask0_1322_442)">
<path d="M79.5488 51.2014C78.475 51.2014 77.938 50.6476 77.938 49.5402V34.7156C77.938 33.6082 78.475 33.0545 79.5488 33.0545C80.6227 33.0545 81.1597 33.6082 81.1597 34.7156V40.6555H90.296V34.7156C90.296 33.6082 90.833 33.0545 91.9068 33.0545C92.9807 33.0545 93.5177 33.6082 93.5177 34.7156V49.5402C93.5177 50.6476 92.9807 51.2014 91.9068 51.2014C90.833 51.2014 90.296 50.6476 90.296 49.5402V43.3486H81.1597V49.5402C81.1597 50.6476 80.6227 51.2014 79.5488 51.2014ZM98.8645 51C97.7235 51 97.153 50.4295 97.153 49.2885V34.9673C97.153 33.8263 97.7235 33.2558 98.8645 33.2558H107.85C108.722 33.2558 109.159 33.6753 109.159 34.5143C109.159 35.3868 108.722 35.8231 107.85 35.8231H100.249V40.7059H107.296C108.169 40.7059 108.605 41.1337 108.605 41.9895C108.605 42.8452 108.169 43.2731 107.296 43.2731H100.249V48.4328H107.85C108.722 48.4328 109.159 48.8606 109.159 49.7164C109.159 50.5721 108.722 51 107.85 51H98.8645ZM111.776 51.2014C111.189 51.2014 110.769 51 110.517 50.5973C110.266 50.1946 110.274 49.708 110.543 49.1375L117.187 34.4136C117.405 33.927 117.665 33.583 117.967 33.3817C118.286 33.1635 118.647 33.0545 119.05 33.0545C119.436 33.0545 119.78 33.1635 120.082 33.3817C120.4 33.583 120.669 33.927 120.887 34.4136L127.557 49.1375C127.825 49.7248 127.842 50.2198 127.607 50.6225C127.372 51.0084 126.97 51.2014 126.399 51.2014C125.929 51.2014 125.56 51.0923 125.292 50.8742C125.04 50.6392 124.813 50.2869 124.612 49.8171L123.354 46.8974H114.695L113.462 49.8171C113.244 50.3037 113.018 50.656 112.783 50.8742C112.548 51.0923 112.212 51.2014 111.776 51.2014ZM118.999 36.7543L115.803 44.3302H122.246L119.05 36.7543H118.999ZM131.713 51C130.623 51 130.077 50.4463 130.077 49.3388V34.8163C130.077 33.7256 130.614 33.1803 131.688 33.1803C132.762 33.1803 133.299 33.7256 133.299 34.8163V48.2566H140.598C141.538 48.2566 142.007 48.7096 142.007 49.6157C142.007 50.5386 141.538 51 140.598 51H131.713ZM146.579 51.2014C145.505 51.2014 144.968 50.6476 144.968 49.5402V35.9489H140.06C139.138 35.9489 138.676 35.4959 138.676 34.5898C138.676 33.7005 139.138 33.2558 140.06 33.2558H153.098C154.021 33.2558 154.482 33.7005 154.482 34.5898C154.482 35.4959 154.021 35.9489 153.098 35.9489H148.19V49.5402C148.19 50.6476 147.653 51.2014 146.579 51.2014ZM157.681 51.2014C156.607 51.2014 156.07 50.6476 156.07 49.5402V34.7156C156.07 33.6082 156.607 33.0545 157.681 33.0545C158.755 33.0545 159.292 33.6082 159.292 34.7156V40.6555H168.428V34.7156C168.428 33.6082 168.965 33.0545 170.039 33.0545C171.113 33.0545 171.65 33.6082 171.65 34.7156V49.5402C171.65 50.6476 171.113 51.2014 170.039 51.2014C168.965 51.2014 168.428 50.6476 168.428 49.5402V43.3486H159.292V49.5402C159.292 50.6476 158.755 51.2014 157.681 51.2014ZM79.574 78C78.4833 78 77.938 77.4463 77.938 76.3388V61.8163C77.938 60.7256 78.475 60.1803 79.5488 60.1803C80.6227 60.1803 81.1597 60.7256 81.1597 61.8163V75.2566H88.4587C89.3983 75.2566 89.8682 75.7096 89.8682 76.6157C89.8682 77.5386 89.3983 78 88.4587 78H79.574ZM93.4302 78.2014C92.3563 78.2014 91.8193 77.6476 91.8193 76.5402V61.7156C91.8193 60.6082 92.3563 60.0545 93.4302 60.0545C94.504 60.0545 95.041 60.6082 95.041 61.7156V76.5402C95.041 77.6476 94.504 78.2014 93.4302 78.2014ZM100.181 78.2014C99.1744 78.2014 98.671 77.6812 98.671 76.6409V61.6653C98.671 61.1451 98.7969 60.7508 99.0486 60.4823C99.317 60.1971 99.661 60.0545 100.08 60.0545C100.466 60.0545 100.752 60.13 100.936 60.281C101.138 60.4152 101.373 60.6501 101.641 60.9857L110.626 72.639V61.5898C110.626 60.5662 111.13 60.0545 112.136 60.0545C113.126 60.0545 113.621 60.5662 113.621 61.5898V76.6912C113.621 77.161 113.504 77.5302 113.269 77.7986C113.034 78.0671 112.715 78.2014 112.313 78.2014C111.927 78.2014 111.616 78.1258 111.381 77.9748C111.163 77.8238 110.92 77.5805 110.652 77.2449L101.666 65.5665V76.6409C101.666 77.6812 101.171 78.2014 100.181 78.2014ZM118.958 78C117.817 78 117.247 77.4295 117.247 76.2885V61.9673C117.247 60.8263 117.817 60.2558 118.958 60.2558H127.944C128.816 60.2558 129.253 60.6753 129.253 61.5143C129.253 62.3868 128.816 62.8231 127.944 62.8231H120.343V67.7059H127.39C128.263 67.7059 128.699 68.1337 128.699 68.9895C128.699 69.8452 128.263 70.2731 127.39 70.2731H120.343V75.4328H127.944C128.816 75.4328 129.253 75.8606 129.253 76.7164C129.253 77.5721 128.816 78 127.944 78H118.958Z" fill="#000887"/>
<g clip-path="url(#clip0_1322_442)">
<path d="M47.6972 32.6378C45.5936 32.6472 43.5244 33.1706 41.6714 34.162C39.8184 35.1535 38.2382 36.5827 37.0696 38.3242L45.5312 48.1354C45.7659 48.4072 45.9173 48.7404 45.9674 49.0953C46.0174 49.4502 45.9641 49.812 45.8138 50.1377C45.6634 50.4634 45.4223 50.7392 45.1191 50.9325C44.8159 51.1257 44.4634 51.2283 44.1034 51.2279C43.8324 51.2285 43.5646 51.17 43.3187 51.0567C43.0728 50.9434 42.8548 50.7779 42.6799 50.5718L35.1145 41.8235L30.9672 36.9813C29.9567 35.809 29.0473 34.5099 27.6238 33.7969C25.9647 33.0049 24.1432 32.6081 22.3034 32.6378C13.7495 32.6903 7.44944 42.1122 9.3342 50.9261C10.2744 55.3221 13.4376 58.8827 15.955 62.3426C19.1666 66.7561 25.4271 73.0024 29.8908 77.2541C31.2504 78.5932 33.0857 79.3442 34.9981 79.3442C36.9105 79.3442 38.7458 78.5932 40.1054 77.2541C44.5866 73.0024 50.834 66.7561 54.0456 62.3426C56.563 58.8914 59.7262 55.344 60.6664 50.9261C62.5468 42.1122 56.2511 32.6903 47.6972 32.6378Z" fill="#000887"/>
</g>
</g>
<defs>
<clipPath id="clip0_1322_442">
<rect width="52" height="46.7246" fill="white" transform="translate(9 32.6377)"/>
</clipPath>
</defs>
</svg>
