<svg width="184" height="109" viewBox="0 0 184 109" fill="none" xmlns="http://www.w3.org/2000/svg">
<mask id="mask0_1229_2517" style="mask-type:alpha" maskUnits="userSpaceOnUse" x="0" y="0" width="184" height="109">
<rect width="184" height="109" fill="#C4C4C4"/>
</mask>
<g mask="url(#mask0_1229_2517)">
<path d="M136.29 38.4229C135.621 40.6533 134.059 44.2225 132.386 47.9031C133.389 50.468 133.278 53.8141 131.382 57.4945C130.936 58.3868 130.379 59.2791 129.71 60.1713C128.037 62.5138 125.695 64.9666 123.241 67.7548L122.683 68.3126C122.014 68.9816 121.011 69.2049 120.23 68.6471C119.226 67.978 119.114 66.7512 119.895 65.8589C120.118 65.6356 120.341 65.4131 120.453 65.1898C123.687 61.6206 126.81 58.2754 128.148 55.7096C130.602 50.9144 128.93 47.7908 126.587 46.3416C124.691 45.226 122.014 45.226 120.565 47.3451C118.446 50.4679 115.547 53.8137 112.758 56.9365C109.524 60.6169 106.29 64.5199 104.505 67.5313C102.498 70.9885 99.821 79.1298 99.3745 87.6062C99.1512 91.7325 99.04 96.5286 98.9287 99.4279C98.9287 100.878 100.044 102.105 101.606 102.105H118.446C119.896 102.105 121.011 100.878 121.011 99.5399V94.7446C121.011 93.629 121.569 92.5142 122.461 91.8451C128.483 87.7188 134.059 82.6994 137.294 79.0198C144.209 70.9899 146.662 47.2346 146.997 40.2084C147.331 33.5157 138.298 31.8422 136.29 38.4222L136.29 38.4229Z" fill="#000887"/>
<path d="M83.5376 67.7546C81.6418 64.6318 78.5191 60.8401 75.2844 57.1597C72.4962 54.0369 69.5967 50.6911 67.4777 47.5683C66.0276 45.338 63.3514 45.338 61.4556 46.5648C59.1132 47.9029 57.4407 51.1376 59.8943 55.9329C61.2324 58.4978 64.355 61.8438 67.5899 65.4131C67.8131 65.6364 68.0356 65.8588 68.1477 66.0821C68.9287 66.8632 68.7055 68.2013 67.8131 68.8703C67.0321 69.3161 66.0285 69.2048 65.3595 68.5358C65.1363 68.3125 65.025 68.2013 64.8018 67.978C62.3482 65.0779 60.0057 62.5129 58.3332 60.2824C57.6641 59.3901 57.1063 58.3865 56.6606 57.6056C54.7647 53.9252 54.6535 50.5791 55.657 48.0142C53.9844 44.2225 52.4231 40.7653 51.7532 38.534C49.7461 31.9541 40.7118 33.6266 41.0462 40.6532C41.3805 47.6798 43.9457 71.4347 50.7488 79.4647C53.8716 83.1451 59.5591 88.0525 65.5819 92.2899C66.4743 92.959 67.032 93.9625 67.032 95.1894V99.9847C67.032 101.435 68.2589 102.55 69.597 102.55H86.4374C87.8875 102.55 89.1142 101.323 89.0023 99.8728C88.8911 96.9733 88.779 92.1772 88.5565 88.0511C88.222 79.3544 85.657 71.2123 83.538 67.7551L83.5376 67.7546Z" fill="#000887"/>
<path d="M88.5567 47.2335C84.5417 43.1072 78.6307 35.5229 78.6307 26.3779C78.6307 24.1476 78.9653 22.1397 79.5231 20.1326C74.7278 18.348 69.7085 18.1255 66.809 18.1255C65.3589 18.1255 64.244 19.2411 64.244 20.6904C64.1328 25.1511 64.8018 34.7426 70.7126 40.6538C75.8425 45.8956 83.65 47.1224 88.5566 47.2337L88.5567 47.2335Z" fill="#ED51C2"/>
<path d="M99.4859 47.2337C104.393 47.0104 112.311 45.8956 117.331 40.7651C123.242 34.8542 123.911 25.2628 123.799 20.8017C123.799 19.3517 122.684 18.2368 121.234 18.2368C118.335 18.2368 113.316 18.4601 108.52 20.2439C109.078 22.251 109.413 24.2589 109.413 26.4892C109.412 35.5227 103.501 43.107 99.4858 47.2333L99.4859 47.2337Z" fill="#ED51C2"/>
<path d="M95.8059 7.75267C94.8023 6.74911 93.1291 6.74911 92.1255 7.75267C88.8916 10.8754 82.5342 18.1243 82.5342 26.4888C82.5342 34.8534 88.8916 42.1023 92.1255 45.225C93.1291 46.2286 94.8024 46.2286 95.8059 45.225C99.0398 42.1023 105.397 34.8534 105.397 26.4888C105.397 18.0138 99.0398 10.876 95.8059 7.75267Z" fill="#ED51C2"/>
</g>
</svg>
