<svg width="184" height="112" viewBox="0 0 184 112" fill="none" xmlns="http://www.w3.org/2000/svg">
<mask id="mask0_1322_474" style="mask-type:alpha" maskUnits="userSpaceOnUse" x="0" y="0" width="184" height="112">
<rect width="184" height="112" fill="#C4C4C4"/>
</mask>
<g mask="url(#mask0_1322_474)">
<path d="M63.8264 57.7134L91.1132 71.3263C91.9774 71.7317 92.9777 71.7317 93.8419 71.3263L121.129 57.7134C121.629 57.4617 122.049 57.0759 122.343 56.5995C122.638 56.123 122.794 55.5749 122.796 55.0152V36.2471L96.5402 49.3451C93.9767 50.5984 90.9786 50.5984 88.4152 49.3451L62.1592 36.2471V55.0152C62.1612 55.5749 62.3175 56.123 62.6119 56.5995C62.9063 57.0759 63.3266 57.4617 63.8267 57.7134H63.8264Z" fill="#ED51C2"/>
<path d="M63.8258 30.3347L91.1126 43.9171V43.9178C91.9768 44.3232 92.9771 44.3232 93.8413 43.9178L121.128 30.3354V30.3347C121.633 30.0809 122.056 29.6904 122.351 29.2086C122.645 28.7261 122.8 28.1711 122.796 27.606C122.794 27.0463 122.637 26.4982 122.343 26.0218C122.049 25.5453 121.628 25.1596 121.128 24.9078L93.8413 11.2949C92.9744 10.9017 91.9796 10.9017 91.1126 11.2949L63.8258 24.9078C63.3257 25.1596 62.9054 25.5453 62.611 26.0218C62.3167 26.4982 62.1603 27.0464 62.1583 27.606C62.1542 28.1711 62.3085 28.7261 62.6029 29.2086C62.898 29.6904 63.3209 30.0809 63.8258 30.3347Z" fill="#000887"/>
<path d="M71.8613 74.6609L60.4308 84.9083C58.077 83.6326 55.2806 83.458 52.7869 84.4318C50.2929 85.4064 48.3548 87.4292 47.4885 89.963C46.623 92.4968 46.9174 95.283 48.2939 97.5799C49.6697 99.8762 51.9883 101.45 54.6303 101.881C57.2731 102.312 59.9712 101.558 62.0062 99.818C64.0412 98.078 65.2067 95.5293 65.1911 92.8521C65.1945 91.6746 64.9569 90.5086 64.494 89.4264L76.9247 78.3601C77.5676 77.7795 77.9317 76.9518 77.9249 76.0862V71.629L71.8612 68.5972L71.8613 74.6609Z" fill="#000887"/>
<path d="M95.5104 84.3019V77.1167C93.562 77.8835 91.395 77.8835 89.4466 77.1167V84.3026V84.3019C86.7275 85.2636 84.6254 87.4576 83.7815 90.2154C82.9369 92.9732 83.4506 95.9678 85.1662 98.2864C86.8811 100.606 89.5943 101.973 92.4785 101.973C95.3628 101.973 98.0761 100.606 99.7909 98.2864C101.506 95.9678 102.02 92.9732 101.176 90.2154C100.332 87.4576 98.2296 85.2636 95.5104 84.3019L95.5104 84.3019Z" fill="#000887"/>
<path d="M128.861 83.7564C127.342 83.7727 125.851 84.1686 124.526 84.9083L113.095 74.6609V68.5972L107.031 71.629V76.2073C107.025 77.0736 107.389 77.9006 108.032 78.4812L120.462 89.5476C120.015 90.5925 119.778 91.7153 119.765 92.8521C119.765 95.2648 120.723 97.5778 122.429 99.284C124.135 100.989 126.448 101.948 128.861 101.948C131.273 101.948 133.587 100.989 135.293 99.284C136.998 97.5779 137.956 95.2648 137.956 92.8521C137.956 90.4394 136.998 88.1264 135.293 86.4202C133.587 84.7148 131.273 83.7565 128.861 83.7565V83.7564Z" fill="#000887"/>
</g>
</svg>
