<svg width="184" height="112" viewBox="0 0 184 112" fill="none" xmlns="http://www.w3.org/2000/svg">
<mask id="mask0_1322_379" style="mask-type:alpha" maskUnits="userSpaceOnUse" x="0" y="0" width="184" height="112">
<rect width="184" height="112" fill="#C4C4C4"/>
</mask>
<g mask="url(#mask0_1322_379)">
<path d="M41.7454 76L33.7716 63.0927V76H21.0364V33.5493H33.7716V55.7499L41.8602 43.6457H56.6606L44.5564 59.9376L56.9474 76H41.7454ZM66.2281 41.0642C64.01 41.0642 62.2316 40.4714 60.8931 39.2858C59.5545 38.1003 58.8853 36.6088 58.8853 34.8113C58.8853 32.9756 59.5545 31.465 60.8931 30.2794C62.2316 29.0556 64.01 28.4437 66.2281 28.4437C68.408 28.4437 70.1672 29.0556 71.5058 30.2794C72.8443 31.465 73.5136 32.9756 73.5136 34.8113C73.5136 36.6088 72.8443 38.1003 71.5058 39.2858C70.1672 40.4714 68.408 41.0642 66.2281 41.0642ZM72.5383 43.6457V76H59.8031V43.6457H72.5383ZM91.0254 49.6117C92.3257 47.7378 93.9128 46.2462 95.7868 45.1372C97.6607 43.9899 99.6111 43.4162 101.638 43.4162V57.0119H98.024C95.6147 57.0119 93.8363 57.4326 92.689 58.2739C91.5799 59.1153 91.0254 60.6068 91.0254 62.7485V76H78.2902V43.6457H91.0254V49.6117ZM117.804 49.6117C119.104 47.7378 120.691 46.2462 122.565 45.1372C124.439 43.9899 126.389 43.4162 128.416 43.4162V57.0119H124.802C122.393 57.0119 120.615 57.4326 119.467 58.2739C118.358 59.1153 117.804 60.6068 117.804 62.7485V76H105.068V43.6457H117.804V49.6117Z" fill="#000887"/>
<g clip-path="url(#clip0_1322_379)">
<path d="M147.668 42.8784C143.115 42.9444 138.77 44.8403 135.573 48.1561C132.375 51.472 130.583 55.9413 130.583 60.5978C130.583 65.2542 132.375 69.7236 135.573 73.0394C138.77 76.3553 143.115 78.2511 147.668 78.3171V88.2788C147.668 88.2788 164.999 81.9852 164.999 60.596C164.999 55.8967 163.172 51.3901 159.922 48.0676C156.672 44.745 152.264 42.8784 147.668 42.8784V42.8784ZM141.976 60.596C141.976 59.4448 142.31 58.3195 142.935 57.3623C143.561 56.4051 144.45 55.6591 145.49 55.2186C146.53 54.778 147.675 54.6628 148.779 54.8874C149.883 55.1119 150.897 55.6663 151.694 56.4803C152.49 57.2943 153.032 58.3314 153.251 59.4605C153.471 60.5895 153.358 61.7598 152.927 62.8234C152.497 63.8869 151.767 64.796 150.831 65.4355C149.895 66.0751 148.794 66.4165 147.668 66.4165C146.159 66.4155 144.712 65.802 143.644 64.7106C142.577 63.6193 141.977 62.1394 141.976 60.596V60.596Z" fill="#000887"/>
</g>
</g>
<defs>
<clipPath id="clip0_1322_379">
<rect width="34.6585" height="45.4146" fill="white" transform="translate(130.342 42.8779)"/>
</clipPath>
</defs>
</svg>
