<svg width="184" height="109" viewBox="0 0 184 109" fill="none" xmlns="http://www.w3.org/2000/svg">
<mask id="mask0_1229_2525" style="mask-type:alpha" maskUnits="userSpaceOnUse" x="0" y="0" width="184" height="109">
<rect width="184" height="109" fill="#C4C4C4"/>
</mask>
<g mask="url(#mask0_1229_2525)">
<path fill-rule="evenodd" clip-rule="evenodd" d="M74.3503 83.6856L84.5972 97.003C85.5275 98.2119 85.3642 99.9231 84.2345 100.947L80.7107 104.146C80.0809 104.717 79.3238 104.97 78.4775 104.895C77.6312 104.818 76.9345 104.43 76.415 103.758L65.054 89.0513L74.3503 83.6856ZM130.558 49.5075H140.994C142.663 49.5075 144.014 48.1434 144.01 46.478C144.007 44.8084 142.646 43.4598 140.979 43.4598H130.543C128.874 43.4598 127.523 44.8238 127.526 46.4893C127.53 48.1597 128.891 49.5075 130.558 49.5075ZM118.171 22.0312L123.388 12.9939C124.222 11.5498 123.735 9.69717 122.291 8.85929C120.849 8.02288 118.992 8.51051 118.158 9.95709L112.94 18.9944C112.107 20.4385 112.594 22.2911 114.038 23.129C115.48 23.9646 117.336 23.4761 118.171 22.0312ZM130.246 32.8565L138.813 27.9108C140.267 27.0719 140.766 25.2112 139.926 23.7573C139.087 22.3034 137.226 21.8043 135.772 22.6448L127.205 27.5906C125.751 28.4294 125.252 30.2901 126.092 31.744C126.931 33.1979 128.79 33.697 130.246 32.8565ZM116.771 46.4671L126.876 63.9706C128.773 67.2567 127.637 71.4975 124.351 73.3941C121.285 75.1649 117.386 74.2934 115.337 71.4983C104.152 69.7968 89.5797 71.6249 75.093 77.2723L61.1631 53.1479C73.3035 43.4352 82.199 31.7921 86.3183 21.2532C84.8718 18.0669 86.0594 14.2098 89.1511 12.4259C92.4371 10.5293 96.678 11.6646 98.5762 14.9506L108.682 32.4541C108.969 32.2319 109.275 32.0261 109.599 31.8391C113.504 29.5847 118.498 30.9234 120.752 34.8278C123.006 38.7322 121.668 43.7262 117.763 45.9806C117.439 46.1684 117.106 46.3293 116.772 46.4674L116.771 46.4671ZM71.5894 79.8276L56.9937 54.5469L45.3901 61.2455C38.3393 65.3174 35.9012 74.4158 39.9714 81.4666C44.0416 88.5165 53.1416 90.9555 60.1916 86.8844L71.7952 80.1858L71.5894 79.8276Z" fill="#000887"/>
<path fill-rule="evenodd" clip-rule="evenodd" d="M116.771 46.4671L126.876 63.9706C128.773 67.2567 127.637 71.4975 124.351 73.3941C121.285 75.1649 117.386 74.2934 115.337 71.4982C104.152 69.7968 89.5797 71.6249 75.093 77.2722L61.1631 53.1479C73.3035 43.4352 82.199 31.7921 86.3183 21.2532C84.8718 18.0669 86.0594 14.2098 89.1511 12.4259C92.4372 10.5293 96.678 11.6646 98.5762 14.9506L108.682 32.4541C108.969 32.2319 109.275 32.0261 109.599 31.839C113.504 29.5847 118.498 30.9234 120.752 34.8278C123.006 38.7321 121.668 43.7262 117.763 45.9806C117.439 46.1684 117.106 46.3291 116.771 46.4671Z" fill="#ED51C2"/>
</g>
</svg>
