<svg width="184" height="112" viewBox="0 0 184 112" fill="none" xmlns="http://www.w3.org/2000/svg">
<mask id="mask0_1322_433" style="mask-type:alpha" maskUnits="userSpaceOnUse" x="0" y="0" width="184" height="112">
<rect width="184" height="112" fill="#C4C4C4"/>
</mask>
<g mask="url(#mask0_1322_433)">
<g clip-path="url(#clip0_1322_433)">
<path d="M29.6759 46.4923C30.1762 45.9935 30.5663 45.3947 30.8209 44.7348C31.0755 44.0749 31.1888 43.3687 31.1536 42.662C31.1184 41.9552 30.9354 41.2639 30.6165 40.6327C30.2976 40.0016 29.85 39.4448 29.3026 38.9985C28.7553 38.5523 28.1204 38.2265 27.4394 38.0424C26.7584 37.8583 26.0464 37.82 25.3496 37.9299C24.6529 38.0399 23.987 38.2956 23.3952 38.6806C22.8034 39.0656 22.2989 39.5711 21.9145 40.1644C21.6759 40.4037 1.65742 65.158 1.47103 65.4423C0.971704 65.941 0.582418 66.5394 0.328404 67.1988C0.0743899 67.8581 -0.0386837 68.5636 -0.00348701 69.2696C0.0317097 69.9756 0.214391 70.6663 0.532716 71.2969C0.85104 71.9275 1.2979 72.484 1.84434 72.9302C2.39077 73.3765 3.02458 73.7025 3.70468 73.8873C4.38477 74.0721 5.09598 74.1114 5.7922 74.0027C6.48841 73.894 7.1541 73.6398 7.7461 73.2565C8.3381 72.8732 8.8432 72.3693 9.22867 71.7776C9.46725 71.5495 29.4895 46.784 29.6759 46.4923Z" fill="#000887"/>
<path d="M41.2587 58.2425C41.7581 57.7438 42.1474 57.1453 42.4014 56.486C42.6554 55.8267 42.7685 55.1211 42.7333 54.4152C42.6981 53.7092 42.5154 53.0185 42.1971 52.3879C41.8787 51.7573 41.4319 51.2008 40.8854 50.7545C40.339 50.3083 39.7052 49.9822 39.0251 49.7975C38.345 49.6127 37.6338 49.5734 36.9376 49.682C36.2414 49.7907 35.5757 50.0449 34.9837 50.4283C34.3917 50.8116 33.8866 51.3154 33.5011 51.9071C33.2625 52.1465 22.7463 65.15 22.5599 65.438C22.0606 65.9367 21.6713 66.5352 21.4173 67.1945C21.1633 67.8538 21.0502 68.5594 21.0854 69.2653C21.1206 69.9713 21.3033 70.662 21.6216 71.2926C21.9399 71.9232 22.3868 72.4797 22.9332 72.926C23.4796 73.3722 24.1134 73.6983 24.7935 73.883C25.4736 74.0678 26.1848 74.1071 26.8811 73.9985C27.5773 73.8898 28.243 73.6356 28.835 73.2522C29.427 72.8689 29.9321 72.3651 30.3175 71.7734C30.571 71.549 41.0724 58.5305 41.2587 58.2425Z" fill="#000887"/>
<path d="M52.2286 42.9357C52.2286 43.9336 51.9337 44.909 51.3811 45.7386C50.8285 46.5683 50.0431 47.2149 49.1242 47.5968C48.2053 47.9787 47.1942 48.0786 46.2187 47.8839C45.2432 47.6892 44.3471 47.2087 43.6438 46.5032C42.9405 45.7976 42.4616 44.8986 42.2675 43.92C42.0735 42.9413 42.1731 41.9269 42.5537 41.0051C42.9343 40.0832 43.5789 39.2952 44.4059 38.7409C45.2329 38.1865 46.2051 37.8906 47.1998 37.8906C48.5335 37.8906 49.8126 38.4222 50.7557 39.3683C51.6988 40.3144 52.2286 41.5977 52.2286 42.9357Z" fill="#000887"/>
<path d="M10.0675 42.9357C10.0675 43.9332 9.77273 44.9084 9.22049 45.7379C8.66824 46.5674 7.88328 47.214 6.96481 47.5961C6.04634 47.9782 5.03558 48.0785 4.06028 47.8844C3.08499 47.6904 2.18892 47.2106 1.48532 46.5058C0.781727 45.801 0.302188 44.9027 0.107307 43.9246C-0.087574 42.9464 0.010951 41.9322 0.390431 41.0102C0.76991 40.0882 1.41331 39.2998 2.23932 38.7445C3.06533 38.1893 4.03688 37.8921 5.03117 37.8906C5.6922 37.8896 6.34693 38.0194 6.95792 38.2725C7.56891 38.5256 8.12417 38.8971 8.59193 39.3657C9.05969 39.8342 9.43079 40.3907 9.68398 41.0033C9.93717 41.6159 10.0675 42.2726 10.0675 42.9357Z" fill="#000887"/>
</g>
<path d="M76.6393 70V52.835C76.6393 51.3958 76.2356 50.3428 75.4282 49.6758C74.656 48.9738 73.5678 48.6228 72.1637 48.6228C70.7947 48.6228 69.5662 48.886 68.478 49.4126C67.4249 49.904 66.407 50.7289 65.4241 51.8873L60.3694 46.9905C62.0543 45.2705 63.9849 43.9191 66.1613 42.9362C68.3376 41.9533 70.707 41.4619 73.2695 41.4619C75.6213 41.4619 77.6572 41.8129 79.3772 42.515C81.0972 43.217 82.4311 44.2876 83.3789 45.7268C84.3266 47.166 84.8005 48.9913 84.8005 51.2028V70H76.6393ZM69.3731 70.5265C67.618 70.5265 66.0209 70.1755 64.5817 69.4735C63.1776 68.7714 62.0543 67.8061 61.2119 66.5775C60.4045 65.3139 60.0008 63.8396 60.0008 62.1547C60.0008 60.7155 60.2641 59.4518 60.7906 58.3636C61.3172 57.2755 62.0894 56.3804 63.1074 55.6783C64.1604 54.9412 65.4592 54.3971 67.0037 54.0461C68.5833 53.6599 70.4086 53.4669 72.4797 53.4669H80.9568L80.483 58.7849H72.6903C71.9531 58.7849 71.3037 58.8551 70.7421 58.9955C70.1805 59.1008 69.7066 59.2938 69.3205 59.5746C68.9343 59.8204 68.636 60.1187 68.4254 60.4698C68.2498 60.8208 68.1621 61.242 68.1621 61.7334C68.1621 62.26 68.3025 62.7163 68.5833 63.1024C68.8641 63.4885 69.2327 63.7869 69.689 63.9975C70.1805 64.2081 70.7421 64.3134 71.3739 64.3134C72.2866 64.3134 73.1466 64.173 73.9539 63.8922C74.7964 63.5763 75.5335 63.1375 76.1654 62.5759C76.8323 62.0143 77.3589 61.3649 77.745 60.6277L79.2193 64.4188C78.4821 65.6122 77.587 66.6653 76.534 67.5779C75.516 68.4906 74.3927 69.2102 73.1641 69.7367C71.9707 70.2633 70.707 70.5265 69.3731 70.5265ZM89.9819 70V42.0411H98.0379L98.3538 47.7277L96.6162 48.3595C97.0024 47.0958 97.6869 45.955 98.6697 44.937C99.6877 43.884 100.899 43.0415 102.303 42.4097C103.707 41.7778 105.181 41.4619 106.726 41.4619C108.832 41.4619 110.604 41.9007 112.044 42.7783C113.483 43.6207 114.553 44.9019 115.256 46.6219C115.993 48.3068 116.361 50.3954 116.361 52.8877V70H107.884V53.5195C107.884 52.3963 107.726 51.466 107.41 50.7289C107.094 49.9918 106.62 49.4477 105.989 49.0966C105.357 48.7456 104.567 48.5877 103.619 48.6228C102.882 48.6228 102.197 48.7456 101.566 48.9913C100.934 49.202 100.372 49.5354 99.8807 49.9918C99.4244 50.413 99.0734 50.9044 98.8277 51.466C98.582 52.0277 98.4591 52.6595 98.4591 53.3616V70H94.1942C93.2815 70 92.4566 70 91.7195 70C91.0174 70 90.4383 70 89.9819 70ZM121.876 70V42.0411H129.932L130.248 47.7277L128.511 48.3595C128.897 47.0958 129.581 45.955 130.564 44.937C131.582 43.884 132.793 43.0415 134.197 42.4097C135.601 41.7778 137.075 41.4619 138.62 41.4619C140.726 41.4619 142.499 41.9007 143.938 42.7783C145.377 43.6207 146.448 44.9019 147.15 46.6219C147.887 48.3068 148.256 50.3954 148.256 52.8877V70H139.778V53.5195C139.778 52.3963 139.62 51.466 139.304 50.7289C138.989 49.9918 138.515 49.4477 137.883 49.0966C137.251 48.7456 136.461 48.5877 135.513 48.6228C134.776 48.6228 134.092 48.7456 133.46 48.9913C132.828 49.202 132.266 49.5354 131.775 49.9918C131.319 50.413 130.968 50.9044 130.722 51.466C130.476 52.0277 130.353 52.6595 130.353 53.3616V70H126.089C125.176 70 124.351 70 123.614 70C122.912 70 122.333 70 121.876 70ZM166.881 70.5265C164.003 70.5265 161.423 69.9122 159.141 68.6837C156.86 67.42 155.069 65.7 153.771 63.5236C152.472 61.3122 151.822 58.82 151.822 56.0469C151.822 53.2036 152.472 50.6938 153.771 48.5175C155.069 46.306 156.86 44.586 159.141 43.3574C161.423 42.0938 164.003 41.4619 166.881 41.4619C169.795 41.4619 172.375 42.0938 174.621 43.3574C176.903 44.586 178.693 46.306 179.992 48.5175C181.291 50.6938 181.94 53.2036 181.94 56.0469C181.94 58.82 181.291 61.3122 179.992 63.5236C178.693 65.7 176.903 67.42 174.621 68.6837C172.375 69.9122 169.795 70.5265 166.881 70.5265ZM166.881 63.2604C168.145 63.2604 169.251 62.9445 170.198 62.3126C171.181 61.6808 171.953 60.8208 172.515 59.7326C173.077 58.6444 173.34 57.4159 173.305 56.0469C173.34 54.6077 173.077 53.344 172.515 52.2558C171.953 51.1326 171.181 50.2726 170.198 49.6758C169.251 49.044 168.145 48.7281 166.881 48.7281C165.653 48.7281 164.547 49.044 163.564 49.6758C162.581 50.3077 161.809 51.1677 161.247 52.2558C160.686 53.344 160.405 54.6077 160.405 56.0469C160.405 57.4159 160.686 58.6444 161.247 59.7326C161.809 60.8208 162.581 61.6808 163.564 62.3126C164.547 62.9445 165.653 63.2604 166.881 63.2604Z" fill="#000887"/>
</g>
<defs>
<clipPath id="clip0_1322_433">
<rect width="52.2271" height="36.1572" fill="white" transform="translate(0 37.8906)"/>
</clipPath>
</defs>
</svg>
