<svg width="185" height="109" viewBox="0 0 185 109" fill="none" xmlns="http://www.w3.org/2000/svg">
<mask id="mask0_1229_2340" style="mask-type:alpha" maskUnits="userSpaceOnUse" x="0" y="0" width="185" height="109">
<rect width="185" height="109" fill="#C4C4C4"/>
</mask>
<g mask="url(#mask0_1229_2340)">
<path d="M122.347 100.408C122.535 100.997 122.373 101.641 121.927 102.071C121.483 102.501 120.833 102.64 120.25 102.431L110.573 99.2858L104.419 107.369C104.047 107.845 103.442 108.076 102.849 107.967C102.255 107.86 101.769 107.431 101.588 106.856L94.8471 85.1215L100.477 87.2182V87.2189C102.778 88.0563 105.301 88.0563 107.602 87.2189C109.903 86.3808 111.835 84.7587 113.059 82.6371L115.512 78.4438L122.347 100.408ZM131.122 40.8252L126.604 48.657C125.995 49.7086 125.776 50.9408 125.985 52.1374L127.558 61.0383V61.039C127.769 62.2355 127.552 63.4692 126.944 64.5217C126.337 65.5748 125.377 66.3793 124.235 66.7947L115.743 69.8876C114.602 70.3044 113.644 71.1103 113.037 72.1627L108.519 79.9944C107.91 81.0578 106.943 81.8703 105.791 82.2871C104.639 82.7032 103.376 82.6974 102.229 82.2695L93.7364 79.1767H93.7357C92.5948 78.7613 91.3444 78.7613 90.2027 79.1767L81.7421 82.2066C80.5939 82.6345 79.3316 82.6403 78.1791 82.2242C77.0273 81.8073 76.0605 80.9948 75.4513 79.9315L70.9324 72.0998H70.9332C70.3269 71.0474 69.3688 70.2415 68.228 69.8247L59.736 66.7318C58.5936 66.3164 57.634 65.512 57.0263 64.4588C56.4186 63.4064 56.2007 62.1727 56.412 60.9761L57.9844 52.0752L57.9851 52.0744C58.1921 50.9029 57.988 49.6955 57.4081 48.657L52.8892 40.8252C52.2822 39.7728 52.065 38.5406 52.2756 37.3441C52.487 36.1476 53.1123 35.0637 54.0425 34.2826L60.9623 28.4746C61.8947 27.6942 62.5222 26.6104 62.7343 25.4131L64.3066 16.5122C64.5165 15.3128 65.1425 14.2268 66.075 13.4442C67.0067 12.6617 68.1849 12.2331 69.4024 12.2346H78.44H78.4393C79.6562 12.2324 80.8329 11.8017 81.7632 11.0184L88.683 5.21034L88.6823 5.2096C89.614 4.42854 90.7907 4 92.0062 4C93.2216 4 94.3983 4.42856 95.33 5.2096L102.25 11.0177L102.249 11.0184C103.181 11.798 104.358 12.2251 105.573 12.2237H114.611H114.61C115.828 12.2229 117.006 12.6515 117.937 13.434C118.87 14.2165 119.496 15.3025 119.706 16.5012L121.278 25.4022V25.4029C121.49 26.5993 122.118 27.684 123.05 28.4643L129.97 34.2724C130.902 35.0542 131.53 36.1395 131.74 37.3381C131.952 38.5367 131.733 39.7719 131.123 40.8251L131.122 40.8252ZM108.141 39.4203C107.851 38.5215 107.073 37.8663 106.139 37.7324L97.9196 36.5375L94.2396 29.0933C93.8206 28.2457 92.9569 27.7089 92.0113 27.7089C91.0657 27.7089 90.202 28.2457 89.7838 29.0933L86.1038 36.5375L77.8845 37.7324H77.8838C76.966 37.878 76.2061 38.5245 75.9142 39.4072C75.6232 40.2906 75.8492 41.2618 76.5 41.9258L82.4553 47.7238L81.0504 55.9959C80.9056 56.9247 81.2976 57.8557 82.0626 58.402C82.8282 58.9476 83.836 59.0149 84.6675 58.5754L92.0063 54.7067L99.3451 58.5754C100.177 59.0149 101.184 58.9476 101.95 58.402C102.715 57.8557 103.107 56.9248 102.962 55.9959L101.557 47.8081L107.513 42.0101C108.209 41.3431 108.455 40.3324 108.142 39.4205L108.141 39.4203ZM63.6991 102.431L73.3761 99.2853L79.5931 107.369C79.9653 107.845 80.5701 108.075 81.164 107.967C81.7578 107.859 82.2434 107.431 82.424 106.855L89.1654 85.1416L83.5357 87.2383C81.2343 88.0764 78.7119 88.0764 76.4104 87.2383C74.1096 86.4002 72.1775 84.778 70.9539 82.6565L68.5112 78.4002L61.6654 100.417C61.4964 100.991 61.6559 101.61 62.0808 102.031C62.5057 102.452 63.1273 102.605 63.6992 102.43L63.6991 102.431Z" fill="#ED51C2"/>
<path d="M101.917 41.1423C101.739 40.5942 101.26 40.1946 100.685 40.113L95.6245 39.3842L93.359 34.8443C93.101 34.3274 92.5692 34 91.9871 34C91.405 34 90.8732 34.3274 90.6157 34.8443L88.3502 39.3842L83.29 40.113C82.7249 40.2017 82.2567 40.596 82.077 41.1343C81.8978 41.6731 82.0369 42.2654 82.4376 42.6703L86.104 46.2063L85.2391 51.2511C85.1499 51.8175 85.3912 52.3853 85.8622 52.7185C86.3336 53.0512 86.954 53.0923 87.4659 52.8242L91.984 50.4648L96.5022 52.8242C97.0141 53.0923 97.6345 53.0512 98.1059 52.7185C98.5769 52.3853 98.8182 51.8176 98.729 51.2511L97.8641 46.2577L101.53 42.7217C101.959 42.315 102.11 41.6985 101.917 41.1423Z" fill="white"/>
<path d="M122.347 100.408C122.535 100.997 122.373 101.642 121.927 102.072C121.483 102.501 120.833 102.641 120.251 102.431L110.574 99.2859L104.419 107.369C104.047 107.845 103.442 108.076 102.849 107.968C102.255 107.86 101.769 107.431 101.589 106.856L94.8471 85.1217L100.477 87.2183C102.778 88.0557 105.301 88.0564 107.602 87.219C109.903 86.3809 111.835 84.7588 113.059 82.6372L115.512 78.4439L122.347 100.408ZM63.6992 102.431L73.3761 99.2855L79.5931 107.369C79.9654 107.845 80.5702 108.075 81.164 107.967C81.7578 107.86 82.2434 107.431 82.4241 106.855L89.1655 85.1418L83.5358 87.2384C81.2343 88.0765 78.7119 88.0765 76.4104 87.2384C74.1097 86.4003 72.1776 84.7782 70.9539 82.6566L68.5113 78.4004L61.6654 100.417C61.4965 100.991 61.6559 101.61 62.0808 102.031C62.5057 102.452 63.1273 102.606 63.6992 102.431Z" fill="white"/>
</g>
</svg>
